<svg width="19" height="22" viewBox="0 0 19 22" fill="none" xmlns="http://www.w3.org/2000/svg">
<path d="M7.3365 6.68783C7.43779 6.68783 7.53837 6.66354 7.63186 6.61569L12.2323 4.2358C12.4589 4.11866 12.5985 3.87867 12.59 3.6194C12.5815 3.36013 12.427 3.13014 12.1933 3.028L7.6694 1.05381C7.46966 0.96667 7.23947 0.985955 7.05673 1.10738C6.87328 1.22737 6.76207 1.43308 6.75782 1.65521L6.73303 3.07371C3.21208 4.27366 0.876825 7.62349 1.00503 11.3955C1.10702 14.391 2.80552 17.1445 5.43897 18.5801C5.53743 18.6337 5.64296 18.6587 5.74708 18.6587C5.98082 18.6587 6.20677 18.5308 6.32435 18.3066C6.49434 17.9816 6.37463 17.578 6.0559 17.4045C3.83255 16.1917 2.39825 13.8718 2.31184 11.349C2.20913 8.33203 3.98342 5.63502 6.70824 4.50364L6.68204 6.00857C6.67849 6.24213 6.79466 6.46141 6.98944 6.58569C7.09497 6.65426 7.21538 6.68783 7.3365 6.68783ZM10.3928 3.69297L8.0101 4.92577L8.04976 2.67016L10.3928 3.69297ZM17.995 10.8176C17.9001 8.03633 16.4481 5.4736 14.1121 3.96153C13.8047 3.76368 13.4024 3.85582 13.209 4.16723C13.0163 4.47793 13.1063 4.89005 13.4109 5.08719C15.3835 6.36356 16.6095 8.52274 16.6889 10.8633C16.7845 13.6618 15.2539 16.2102 12.8131 17.4673L12.7748 15.9631C12.7677 15.7295 12.6424 15.5167 12.4433 15.401C12.2443 15.286 11.9999 15.2846 11.8009 15.3996L7.30534 17.9723C7.08364 18.0994 6.95473 18.3451 6.97315 18.6037C6.99227 18.8615 7.15589 19.0851 7.39388 19.1772L11.9992 20.9571C12.075 20.9857 12.1529 21 12.2308 21C12.364 21 12.4972 20.9579 12.6091 20.8771C12.7869 20.7486 12.8896 20.5379 12.8846 20.3165L12.8492 18.918C16.0627 17.5444 18.1154 14.3489 17.995 10.8176ZM9.16604 18.4358L11.4949 17.103L11.5523 19.3579L9.16604 18.4358Z" fill="#6B6B6B" stroke="#6B6B6B" stroke-width="0.5"/>
</svg>
