<svg width="1486" height="1868" viewBox="0 0 1486 1868" fill="none" xmlns="http://www.w3.org/2000/svg">
<path opacity="0.09" d="M507.514 128.702L524.782 85.661L559.404 99.5203L542.135 142.562C540.236 147.296 542.577 152.729 547.337 154.635L573.303 165.03C578.064 166.935 583.513 164.621 585.412 159.886L609.588 99.628L624.302 105.518C628.283 107.112 632.156 102.968 630.163 99.1724L583.81 5.38571C581.695 1.14225 576.675 -0.867367 572.212 0.742816L473.847 36.5973C469.868 38.0017 469.717 43.636 473.699 45.2299L488.413 51.1201L464.237 111.378C462.338 116.113 464.679 121.546 469.439 123.451L495.405 133.846C500.166 135.752 505.615 133.437 507.514 128.702Z" fill="#4488FF"/>
<path opacity="0.09" d="M457.42 1818.33L474.689 1775.29L509.31 1789.15L492.042 1832.19C490.142 1836.93 492.483 1842.36 497.243 1844.26L523.209 1854.66C527.97 1856.56 533.419 1854.25 535.318 1849.52L559.494 1789.26L574.208 1795.15C578.19 1796.74 582.062 1792.6 580.069 1788.8L533.716 1695.01C531.602 1690.77 526.582 1688.76 522.118 1690.37L423.754 1726.23C419.775 1727.63 419.624 1733.26 423.605 1734.86L438.319 1740.75L414.144 1801.01C412.244 1805.74 414.585 1811.17 419.345 1813.08L445.311 1823.47C450.072 1825.38 455.521 1823.07 457.42 1818.33Z" fill="#4488FF"/>
<path opacity="0.09" d="M1281.07 1191.34L1298.34 1148.3L1332.96 1162.16L1315.69 1205.2C1313.79 1209.94 1316.13 1215.37 1320.89 1217.28L1346.86 1227.67C1351.62 1229.58 1357.07 1227.26 1358.97 1222.53L1383.14 1162.27L1397.86 1168.16C1401.84 1169.75 1405.71 1165.61 1403.72 1161.81L1357.36 1068.03C1355.25 1063.78 1350.23 1061.77 1345.77 1063.38L1247.4 1099.24C1243.42 1100.64 1243.27 1106.28 1247.25 1107.87L1261.97 1113.76L1237.79 1174.02C1235.89 1178.75 1238.23 1184.19 1242.99 1186.09L1268.96 1196.49C1273.72 1198.39 1279.17 1196.08 1281.07 1191.34Z" fill="#4488FF"/>
<path opacity="0.09" d="M44.8579 396.57L62.1262 353.528L96.7475 367.388L79.4792 410.429C77.5797 415.164 79.9205 420.597 84.6809 422.502L110.647 432.897C115.407 434.802 120.856 432.488 122.756 427.753L146.932 367.495L161.646 373.385C165.627 374.979 169.5 370.835 167.507 367.04L121.154 273.253C119.039 269.009 114.019 267 109.556 268.61L11.1911 304.464C7.21217 305.869 7.06121 311.503 11.0427 313.097L25.7567 318.987L1.58114 379.245C-0.318374 383.98 2.02238 389.413 6.78282 391.319L32.7489 401.713C37.5093 403.619 42.9583 401.304 44.8579 396.57Z" fill="#4488FF"/>
<path opacity="0.09" d="M1421.25 374.891L1389.61 340.969L1416.89 315.568L1448.54 349.49C1452.02 353.221 1457.94 353.416 1461.69 349.924L1482.16 330.873C1485.91 327.38 1486.13 321.47 1482.65 317.738L1438.34 270.248L1449.93 259.453C1453.07 256.532 1450.97 251.267 1446.68 251.455L1341.99 253.457C1337.24 253.564 1333.29 257.247 1332.85 261.966L1323.48 366.141C1323.06 370.335 1328.1 372.869 1331.24 369.947L1342.84 359.152L1387.15 406.642C1390.63 410.374 1396.55 410.569 1400.3 407.076L1420.76 388.025C1424.51 384.533 1424.74 378.622 1421.25 374.891Z" fill="#4488FF"/>
<path opacity="0.09" d="M1269.98 1816.25L1296.28 1778.04L1327.01 1799.14L1300.72 1837.35C1297.82 1841.56 1298.91 1847.37 1303.14 1850.27L1326.19 1866.1C1330.42 1869.01 1336.24 1867.94 1339.13 1863.74L1375.95 1810.24L1389.01 1819.21C1392.55 1821.64 1397.24 1818.45 1396.13 1814.31L1371.5 1712.65C1370.37 1708.05 1365.91 1704.98 1361.2 1705.58L1257.36 1719.01C1253.17 1719.51 1251.78 1724.97 1255.32 1727.4L1268.38 1736.37L1231.56 1789.86C1228.67 1794.07 1229.76 1799.88 1233.99 1802.78L1257.04 1818.61C1261.26 1821.51 1267.09 1820.45 1269.98 1816.25Z" fill="#4488FF"/>
<path opacity="0.09" d="M245.168 908.742L213.52 874.821L240.805 849.42L272.454 883.341C275.935 887.073 281.853 887.268 285.605 883.775L306.069 864.725C309.821 861.232 310.042 855.321 306.561 851.59L262.253 804.1L273.849 793.304C276.987 790.383 274.88 785.119 270.593 785.306L165.903 787.309C161.159 787.415 157.202 791.098 156.762 795.818L147.399 899.992C146.978 904.187 152.019 906.72 155.157 903.799L166.753 893.004L211.062 940.494C214.543 944.225 220.461 944.42 224.213 940.928L244.677 921.877C248.429 918.384 248.65 912.474 245.168 908.742Z" fill="#4488FF"/>
<path opacity="0.09" d="M105.192 1426.82L73.543 1392.89L100.829 1367.49L132.477 1401.42C135.959 1405.15 141.877 1405.34 145.629 1401.85L166.093 1382.8C169.845 1379.31 170.066 1373.4 166.584 1369.66L122.276 1322.17L133.872 1311.38C137.01 1308.46 134.903 1303.19 130.617 1303.38L25.9265 1305.38C21.1823 1305.49 17.2259 1309.17 16.7859 1313.89L7.42224 1418.07C7.0019 1422.26 12.0424 1424.79 15.1802 1421.87L26.7766 1411.08L71.0849 1458.57C74.5663 1462.3 80.4843 1462.49 84.2361 1459L104.7 1439.95C108.452 1436.46 108.673 1430.55 105.192 1426.82Z" fill="#4488FF"/>
<path opacity="0.09" d="M880.215 1362.05L848.566 1328.13L875.852 1302.73L907.501 1336.65C910.982 1340.39 916.9 1340.58 920.652 1337.09L941.116 1318.04C944.868 1314.54 945.089 1308.63 941.608 1304.9L897.299 1257.41L908.896 1246.62C912.034 1243.7 909.926 1238.43 905.64 1238.62L800.95 1240.62C796.206 1240.73 792.249 1244.41 791.809 1249.13L782.446 1353.3C782.025 1357.5 787.066 1360.03 790.204 1357.11L801.8 1346.32L846.108 1393.81C849.59 1397.54 855.508 1397.73 859.26 1394.24L879.724 1375.19C883.475 1371.7 883.697 1365.79 880.215 1362.05Z" fill="#4488FF"/>
</svg>
