<svg width="34" height="34" viewBox="0 0 34 34" fill="none" xmlns="http://www.w3.org/2000/svg">
<path d="M10.2335 15.2993C9.89774 15.2993 9.56952 15.399 9.29035 15.5858C9.01118 15.7726 8.7936 16.0381 8.66511 16.3487C8.53662 16.6593 8.503 17.0011 8.56851 17.3309C8.63401 17.6606 8.79569 17.9635 9.0331 18.2013C9.27052 18.439 9.573 18.6009 9.90231 18.6665C10.2316 18.7321 10.5729 18.6984 10.8831 18.5698C11.1933 18.4411 11.4585 18.2232 11.645 17.9437C11.8315 17.6641 11.9311 17.3355 11.9311 16.9992C11.9311 16.5484 11.7522 16.116 11.4339 15.7972C11.1155 15.4784 10.6837 15.2993 10.2335 15.2993ZM17.0239 15.2993C16.6882 15.2993 16.36 15.399 16.0808 15.5858C15.8016 15.7726 15.584 16.0381 15.4555 16.3487C15.3271 16.6593 15.2934 17.0011 15.3589 17.3309C15.4244 17.6606 15.5861 17.9635 15.8235 18.2013C16.061 18.439 16.3634 18.6009 16.6927 18.6665C17.022 18.7321 17.3634 18.6984 17.6736 18.5698C17.9838 18.4411 18.2489 18.2232 18.4354 17.9437C18.622 17.6641 18.7215 17.3355 18.7215 16.9992C18.7215 16.5484 18.5427 16.116 18.2243 15.7972C17.906 15.4784 17.4742 15.2993 17.0239 15.2993ZM23.8144 15.2993C23.4786 15.2993 23.1504 15.399 22.8712 15.5858C22.592 15.7726 22.3745 16.0381 22.246 16.3487C22.1175 16.6593 22.0839 17.0011 22.1494 17.3309C22.2149 17.6606 22.3766 17.9635 22.614 18.2013C22.8514 18.439 23.1539 18.6009 23.4832 18.6665C23.8125 18.7321 24.1538 18.6984 24.464 18.5698C24.7742 18.4411 25.0393 18.2232 25.2259 17.9437C25.4124 17.6641 25.512 17.3355 25.512 16.9992C25.512 16.5484 25.3331 16.116 25.0147 15.7972C24.6964 15.4784 24.2646 15.2993 23.8144 15.2993ZM17.0239 0C14.7946 0 12.5871 0.439699 10.5275 1.29399C8.46783 2.14828 6.5964 3.40044 5.02003 4.97896C1.83639 8.16694 0.0478494 12.4908 0.0478494 16.9992C0.0330086 20.9246 1.3903 24.7314 3.88444 27.7598L0.489227 31.1596C0.253671 31.3987 0.0941026 31.7022 0.030656 32.032C-0.0327906 32.3618 0.00272788 32.703 0.13273 33.0125C0.273729 33.3184 0.502306 33.5754 0.789444 33.751C1.07658 33.9265 1.40933 34.0127 1.74546 33.9985H17.0239C21.5263 33.9985 25.8442 32.2075 29.0278 29.0195C32.2115 25.8316 34 21.5077 34 16.9992C34 12.4908 32.2115 8.16694 29.0278 4.97896C25.8442 1.79099 21.5263 0 17.0239 0ZM17.0239 30.5986H5.83669L7.41547 29.0177C7.57587 28.8603 7.70348 28.6725 7.7909 28.4654C7.87832 28.2582 7.92382 28.0357 7.92475 27.8108C7.91837 27.3624 7.73532 26.9347 7.41547 26.6208C5.19259 24.3974 3.80835 21.471 3.49856 18.3401C3.18878 15.2093 3.97262 12.0678 5.71655 9.45077C7.46047 6.83376 10.0566 4.90319 13.0626 3.98798C16.0686 3.07276 19.2985 3.22953 22.202 4.43156C25.1055 5.63359 27.503 7.80652 28.986 10.5801C30.469 13.3538 30.9458 16.5565 30.3351 19.6426C29.7244 22.7288 28.064 25.5075 25.6368 27.5052C23.2096 29.5029 20.1658 30.5962 17.0239 30.5986Z" fill="white"/>
</svg>
