<svg width="32" height="35" viewBox="0 0 32 35" fill="none" xmlns="http://www.w3.org/2000/svg">
<path d="M10.5449 35C13.3638 35 16.0261 33.9155 18.062 31.9532L24.6395 25.4463C25.1093 24.9816 25.1093 24.1553 24.6395 23.6905C24.1697 23.2257 23.3344 23.2257 22.8646 23.6905L16.2871 30.1457C14.7732 31.6433 12.7374 32.4696 10.5449 32.4696C8.35237 32.4696 6.36868 31.6433 4.80261 30.1457C3.23654 28.6481 2.45351 26.6341 2.45351 24.4651C2.45351 22.2962 3.28874 20.3338 4.80261 18.7846L19.6803 4.06676C20.7765 2.98229 22.186 2.41424 23.752 2.41424C25.2659 2.41424 26.7276 2.98229 27.8238 4.06676C28.9201 5.15124 29.4943 6.54555 29.4943 8.0948C29.4943 9.5924 28.9201 11.0384 27.8238 12.1228L12.894 26.8923C11.5889 28.1833 9.39641 28.1833 8.09136 26.8923C7.46493 26.2726 7.09951 25.3947 7.09951 24.5168C7.09951 23.6389 7.46493 22.761 8.09136 22.1413L14.721 15.5828C15.1909 15.118 15.1909 14.2918 14.721 13.827C14.2512 13.3622 13.416 13.3622 12.9462 13.827L6.36868 20.3855C5.27243 21.4699 4.646 22.9675 4.646 24.5168C4.646 26.066 5.27243 27.5636 6.36868 28.6481C8.66558 30.9203 12.4241 30.9203 14.721 28.6481L29.5987 13.9303C31.1648 12.381 32 10.367 32 8.14644C32 5.92586 31.1648 3.91184 29.5987 2.3626C26.4144 -0.787532 21.1419 -0.787532 17.9576 2.3626L3.07993 17.0804C1.09625 19.0428 0 21.6765 0 24.5168C0 27.3054 1.09625 29.9391 3.07993 31.9532C5.06362 33.9155 7.72594 35 10.5449 35Z" fill="#848484"/>
</svg>
