<svg width="945" height="1574" viewBox="0 0 945 1574" fill="none" xmlns="http://www.w3.org/2000/svg">
<g opacity="0.73">
<path d="M81.433 74.0041L8.69709 90.3295C7.73255 90.546 6.89352 91.1367 6.36456 91.9718C5.83561 92.807 5.66007 93.818 5.87656 94.7825C6.09305 95.7471 6.68383 96.5861 7.51894 97.1151C8.35405 97.644 9.36509 97.8195 10.3296 97.6031L83.0655 81.2777C84.03 81.0612 84.8691 80.4704 85.398 79.6353C85.927 78.8002 86.1025 77.7892 85.886 76.8246C85.6695 75.8601 85.0788 75.021 84.2436 74.4921C83.4085 73.9631 82.3975 73.7876 81.433 74.0041ZM84.698 88.5513L11.9622 104.877C10.9976 105.093 10.1586 105.684 9.62964 106.519C9.10069 107.354 8.92515 108.365 9.14164 109.33C9.35812 110.294 9.94891 111.133 10.784 111.662C11.6191 112.191 12.6302 112.367 13.5947 112.15L86.3306 95.8249C87.2951 95.6084 88.1341 95.0176 88.6631 94.1825C89.192 93.3474 89.3676 92.3363 89.1511 91.3718C88.9346 90.4073 88.3438 89.5682 87.5087 89.0393C86.6736 88.5103 85.6626 88.3348 84.698 88.5513ZM15.0816 50.6965C14.3623 50.8579 13.707 51.229 13.1987 51.7629C12.6903 52.2967 12.3516 52.9693 12.2255 53.6956C12.0994 54.422 12.1915 55.1694 12.4902 55.8433C12.7888 56.5173 13.2807 57.0876 13.9034 57.482C14.5262 57.8765 15.252 58.0774 15.9889 58.0594C16.7259 58.0414 17.441 57.8052 18.0437 57.3808C18.6465 56.9564 19.1098 56.3628 19.3752 55.675C19.6406 54.9873 19.6961 54.2363 19.5346 53.517C19.3182 52.5524 18.7274 51.7134 17.8923 51.1845C17.0571 50.6555 16.0461 50.48 15.0816 50.6965ZM61.0991 17.4479L2.91038 30.5082C0.0167689 31.1577 -2.50033 32.93 -4.08719 35.4354C-5.67404 37.9407 -6.20066 40.9738 -5.5512 43.8674L0.978952 72.9618C1.62842 75.8554 3.40076 78.3725 5.9061 79.9593C8.41143 81.5462 11.4445 82.0728 14.3381 81.4233L72.5268 68.363C75.4205 67.7136 77.9376 65.9412 79.5244 63.4359C81.1113 60.9306 81.6379 57.8975 80.9884 55.0039L74.4583 25.9095C73.8088 23.0159 72.0365 20.4988 69.5311 18.9119C67.0258 17.3251 63.9927 16.7985 61.0991 17.4479ZM73.7148 56.6364C73.9313 57.6009 73.7558 58.612 73.2268 59.4471C72.6979 60.2822 71.8588 60.873 70.8943 61.0895L12.7056 74.1498C11.7411 74.3662 10.73 74.1907 9.89492 73.6617C9.05981 73.1328 8.46903 72.2938 8.25254 71.3292L1.72239 42.2349C1.5059 41.2703 1.68144 40.2593 2.2104 39.4242C2.73935 38.5891 3.57838 37.9983 4.54292 37.7818L62.7316 24.7215C63.6962 24.505 64.7072 24.6806 65.5423 25.2095C66.3774 25.7385 66.9682 26.5775 67.1847 27.542L73.7148 56.6364ZM35.2698 38.5253C33.1119 39.0096 31.1461 40.1229 29.621 41.7245C28.0959 43.326 27.0799 45.3439 26.7016 47.5228C26.3233 49.7018 26.5996 51.944 27.4956 53.9659C28.3916 55.9878 29.8671 57.6986 31.7354 58.882C33.6037 60.0654 35.781 60.6682 37.9919 60.6141C40.2027 60.5601 42.348 59.8516 44.1562 58.5784C45.9645 57.3052 47.3546 55.5243 48.1507 53.461C48.9469 51.3977 49.1133 49.1447 48.629 46.9868C47.9795 44.0932 46.2072 41.5761 43.7019 39.9893C41.1965 38.4024 38.1634 37.8758 35.2698 38.5253ZM38.5349 53.0724C37.8156 53.2339 37.0646 53.1784 36.3768 52.913C35.6891 52.6476 35.0954 52.1843 34.671 51.5815C34.2466 50.9788 34.0105 50.2637 33.9924 49.5267C33.9744 48.7898 34.1754 48.064 34.5698 47.4412C34.9643 46.8185 35.5345 46.3266 36.2085 46.028C36.8825 45.7293 37.6299 45.6372 38.3562 45.7633C39.0825 45.8894 39.7551 46.2281 40.289 46.7364C40.8228 47.2448 41.194 47.9001 41.3554 48.6194C41.5719 49.5839 41.3964 50.5949 40.8674 51.43C40.3384 52.2652 39.4994 52.8559 38.5349 53.0724ZM58.7231 40.9012C58.0038 41.0627 57.3485 41.4338 56.8402 41.9676C56.3318 42.5015 55.9931 43.1741 55.867 43.9004C55.7409 44.6267 55.833 45.3741 56.1317 46.0481C56.4304 46.7221 56.9222 47.2924 57.545 47.6868C58.1677 48.0813 58.8935 48.2822 59.6305 48.2642C60.3674 48.2462 61.0825 48.01 61.6852 47.5856C62.288 47.1612 62.7514 46.5676 63.0168 45.8798C63.2821 45.1921 63.3376 44.441 63.1762 43.7218C62.9597 42.7572 62.3689 41.9182 61.5338 41.3892C60.6987 40.8603 59.6876 40.6847 58.7231 40.9012Z" fill="#838383" fill-opacity="0.09"/>
<path d="M890.924 23.5392L898.617 18.3082L908.324 28.5104L912.524 27.6343L918.274 14.1632L926.992 15.8161L927.294 30.4344L930.869 32.7844L943.705 26.8563L948.895 34.5296L938.653 44.2944L939.508 48.4936L952.941 54.1826L951.248 62.9156L936.639 63.2884L934.273 66.8769L940.135 79.6947L932.442 84.9257L922.735 74.7234L918.534 75.5995L912.785 89.0706L904.067 87.4178L903.765 72.7994L900.19 70.4494L887.354 76.3776L882.164 68.7042L892.406 58.9394L891.551 54.7403L878.118 49.0512L879.811 40.3182L894.42 39.9455L896.786 36.3569L890.924 23.5392ZM907.745 40.1069C904.684 42.188 902.57 45.3964 901.866 49.0264C901.162 52.6565 901.926 56.4108 903.991 59.4634C906.055 62.516 909.251 64.617 912.875 65.304C916.499 65.991 920.254 65.2079 923.314 63.1269C926.374 61.0459 928.489 57.8374 929.193 54.2074C929.897 50.5773 929.133 46.823 927.068 43.7704C925.004 40.7178 921.808 38.6169 918.184 37.9298C914.56 37.2428 910.805 38.0259 907.745 40.1069Z" fill="#BABABA" fill-opacity="0.3"/>
<path d="M29.2141 963.191L20.9828 941.514L38.4558 934.972L46.6871 956.649C47.5925 959.033 50.299 960.248 52.7016 959.349L65.8063 954.442C68.2088 953.543 69.4337 950.856 68.5283 948.471L57.0045 918.125L64.4305 915.344C66.4399 914.592 66.4625 911.761 64.4398 911.033L15.5249 892.061C13.3053 891.208 10.7717 892.157 9.6715 894.252L-14.4507 940.569C-15.442 942.426 -13.5863 944.554 -11.5769 943.801L-4.15089 941.021L7.37292 971.368C8.27836 973.752 10.9849 974.967 13.3874 974.068L26.4921 969.161C28.8947 968.262 30.1196 965.575 29.2141 963.191Z" fill="#E6E6E6" fill-opacity="0.63"/>
<path d="M949.858 918.147L881.043 889.485C880.13 889.105 879.104 889.103 878.19 889.48C877.276 889.856 876.549 890.58 876.169 891.493C875.789 892.406 875.787 893.432 876.164 894.346C876.54 895.26 877.264 895.987 878.177 896.367L946.992 925.028C947.905 925.408 948.931 925.41 949.845 925.034C950.759 924.657 951.486 923.933 951.866 923.021C952.246 922.108 952.248 921.082 951.872 920.168C951.495 919.254 950.771 918.527 949.858 918.147ZM944.126 931.91L875.311 903.248C874.398 902.868 873.372 902.866 872.458 903.243C871.544 903.619 870.817 904.344 870.437 905.256C870.057 906.169 870.055 907.195 870.431 908.109C870.808 909.023 871.532 909.75 872.445 910.13L941.26 938.791C942.172 939.171 943.199 939.173 944.113 938.797C945.027 938.42 945.754 937.696 946.134 936.784C946.514 935.871 946.516 934.845 946.139 933.931C945.763 933.017 945.039 932.29 944.126 931.91ZM909.137 860.81C908.456 860.527 907.707 860.451 906.984 860.594C906.26 860.736 905.595 861.09 905.073 861.61C904.551 862.13 904.195 862.794 904.049 863.516C903.904 864.239 903.977 864.989 904.257 865.67C904.538 866.352 905.015 866.935 905.627 867.346C906.239 867.757 906.959 867.977 907.696 867.978C908.434 867.979 909.155 867.762 909.768 867.354C910.382 866.945 910.861 866.364 911.144 865.684C911.524 864.771 911.526 863.745 911.15 862.831C910.773 861.917 910.049 861.19 909.137 860.81ZM965.906 860.228L910.854 837.299C908.116 836.159 905.037 836.153 902.295 837.283C899.553 838.412 897.372 840.585 896.232 843.322L884.768 870.848C883.627 873.586 883.621 876.665 884.751 879.407C885.88 882.149 888.053 884.33 890.791 885.47L945.843 908.399C948.581 909.539 951.659 909.545 954.401 908.416C957.143 907.286 959.324 905.114 960.464 902.376L971.929 874.85C973.069 872.112 973.075 869.034 971.946 866.292C970.816 863.55 968.643 861.368 965.906 860.228ZM953.583 899.51C953.203 900.422 952.476 901.147 951.562 901.523C950.648 901.9 949.622 901.898 948.709 901.517L893.657 878.588C892.744 878.208 892.02 877.481 891.643 876.567C891.267 875.653 891.269 874.627 891.649 873.715L903.114 846.188C903.494 845.276 904.221 844.552 905.135 844.175C906.049 843.799 907.075 843.801 907.987 844.181L963.04 867.11C963.952 867.49 964.676 868.217 965.053 869.131C965.429 870.045 965.427 871.071 965.047 871.984L953.583 899.51ZM932.647 862.527C930.606 861.677 928.358 861.451 926.188 861.878C924.018 862.305 922.024 863.366 920.457 864.927C918.89 866.488 917.821 868.478 917.386 870.646C916.95 872.815 917.167 875.063 918.009 877.108C918.852 879.153 920.281 880.902 922.118 882.134C923.954 883.367 926.115 884.027 928.326 884.031C930.538 884.035 932.701 883.384 934.542 882.159C936.384 880.933 937.82 879.19 938.671 877.148C939.811 874.411 939.817 871.332 938.687 868.59C937.558 865.848 935.385 863.667 932.647 862.527ZM926.915 876.29C926.235 876.006 925.653 875.528 925.245 874.914C924.837 874.3 924.62 873.579 924.621 872.842C924.622 872.105 924.842 871.384 925.253 870.772C925.664 870.16 926.247 869.684 926.929 869.403C927.61 869.122 928.36 869.05 929.082 869.195C929.805 869.34 930.469 869.696 930.989 870.219C931.509 870.741 931.863 871.406 932.005 872.129C932.148 872.852 932.072 873.602 931.789 874.282C931.409 875.195 930.682 875.919 929.768 876.295C928.854 876.672 927.828 876.67 926.915 876.29ZM950.426 878.007C949.745 877.723 948.996 877.648 948.273 877.79C947.549 877.933 946.885 878.287 946.362 878.807C945.84 879.327 945.484 879.991 945.339 880.713C945.193 881.436 945.266 882.186 945.547 882.867C945.827 883.549 946.304 884.132 946.916 884.543C947.528 884.953 948.248 885.173 948.986 885.175C949.723 885.176 950.444 884.959 951.058 884.551C951.671 884.142 952.15 883.561 952.434 882.881C952.814 881.968 952.816 880.942 952.439 880.028C952.063 879.114 951.338 878.387 950.426 878.007Z" fill="#838383" fill-opacity="0.09"/>
<path d="M727.424 1584.34L655.241 1565.72C654.283 1565.47 653.267 1565.62 652.416 1566.12C651.565 1566.62 650.948 1567.44 650.701 1568.4C650.454 1569.36 650.597 1570.37 651.1 1571.22C651.602 1572.08 652.422 1572.69 653.379 1572.94L725.563 1591.55C726.52 1591.8 727.536 1591.66 728.388 1591.16C729.239 1590.65 729.856 1589.83 730.103 1588.88C730.35 1587.92 730.206 1586.9 729.704 1586.05C729.202 1585.2 728.382 1584.58 727.424 1584.34ZM723.701 1598.77L651.518 1580.16C650.56 1579.91 649.544 1580.05 648.693 1580.56C647.841 1581.06 647.224 1581.88 646.978 1582.84C646.731 1583.79 646.874 1584.81 647.377 1585.66C647.879 1586.51 648.699 1587.13 649.656 1587.38L721.84 1605.99C722.797 1606.24 723.813 1606.09 724.665 1605.59C725.516 1605.09 726.133 1604.27 726.38 1603.31C726.627 1602.36 726.483 1601.34 725.981 1600.49C725.479 1599.64 724.659 1599.02 723.701 1598.77ZM678.985 1533.35C678.271 1533.17 677.519 1533.2 676.823 1533.44C676.127 1533.69 675.519 1534.13 675.076 1534.72C674.633 1535.31 674.374 1536.02 674.333 1536.75C674.291 1537.49 674.469 1538.22 674.844 1538.86C675.218 1539.49 675.773 1540 676.437 1540.32C677.101 1540.64 677.845 1540.75 678.575 1540.65C679.305 1540.55 679.988 1540.23 680.538 1539.74C681.088 1539.25 681.479 1538.61 681.663 1537.89C681.91 1536.93 681.767 1535.92 681.264 1535.07C680.762 1534.22 679.942 1533.6 678.985 1533.35ZM735.098 1524.73L677.351 1509.84C674.479 1509.09 671.431 1509.53 668.877 1511.03C666.323 1512.54 664.472 1515 663.731 1517.87L656.285 1546.74C655.545 1549.62 655.975 1552.66 657.482 1555.22C658.989 1557.77 661.449 1559.62 664.32 1560.36L722.068 1575.26C724.939 1576 727.987 1575.57 730.542 1574.06C733.096 1572.55 734.947 1570.09 735.687 1567.22L743.133 1538.35C743.874 1535.48 743.443 1532.43 741.936 1529.87C740.43 1527.32 737.97 1525.47 735.098 1524.73ZM728.469 1565.36C728.222 1566.32 727.605 1567.14 726.754 1567.64C725.902 1568.14 724.886 1568.28 723.929 1568.04L666.182 1553.15C665.225 1552.9 664.405 1552.28 663.903 1551.43C663.4 1550.58 663.257 1549.56 663.504 1548.61L670.95 1519.73C671.196 1518.77 671.813 1517.95 672.665 1517.45C673.516 1516.95 674.532 1516.81 675.49 1517.05L733.237 1531.95C734.194 1532.19 735.014 1532.81 735.516 1533.66C736.018 1534.51 736.162 1535.53 735.915 1536.49L728.469 1565.36ZM702.502 1531.72C700.36 1531.17 698.103 1531.26 696.015 1531.99C693.928 1532.72 692.104 1534.06 690.774 1535.82C689.445 1537.59 688.669 1539.71 688.545 1541.92C688.421 1544.13 688.955 1546.32 690.079 1548.23C691.202 1550.13 692.866 1551.66 694.858 1552.62C696.851 1553.58 699.083 1553.93 701.273 1553.62C703.463 1553.31 705.512 1552.36 707.161 1550.88C708.81 1549.41 709.985 1547.48 710.537 1545.34C711.277 1542.47 710.847 1539.42 709.34 1536.86C707.833 1534.31 705.373 1532.46 702.502 1531.72ZM698.779 1546.15C698.065 1545.97 697.421 1545.58 696.93 1545.03C696.439 1544.48 696.122 1543.8 696.019 1543.07C695.916 1542.34 696.031 1541.59 696.351 1540.93C696.671 1540.26 697.18 1539.71 697.815 1539.34C698.45 1538.96 699.182 1538.78 699.918 1538.82C700.654 1538.87 701.361 1539.12 701.95 1539.57C702.539 1540.01 702.984 1540.62 703.227 1541.31C703.471 1542.01 703.503 1542.76 703.318 1543.48C703.072 1544.43 702.455 1545.25 701.603 1545.76C700.752 1546.26 699.736 1546.4 698.779 1546.15ZM722.295 1544.52C721.581 1544.34 720.829 1544.37 720.133 1544.61C719.437 1544.86 718.829 1545.3 718.386 1545.89C717.943 1546.48 717.684 1547.19 717.643 1547.92C717.602 1548.66 717.78 1549.39 718.154 1550.02C718.529 1550.66 719.083 1551.17 719.747 1551.49C720.412 1551.81 721.156 1551.92 721.886 1551.82C722.616 1551.72 723.299 1551.4 723.848 1550.91C724.398 1550.42 724.79 1549.77 724.974 1549.06C725.22 1548.1 725.077 1547.09 724.575 1546.24C724.072 1545.38 723.252 1544.77 722.295 1544.52Z" fill="#838383" fill-opacity="0.09"/>
<path d="M852.036 414.798L848.005 397.264L862.13 394.086L866.16 411.621C866.604 413.549 868.556 414.77 870.498 414.333L881.091 411.95C883.033 411.513 884.259 409.578 883.816 407.649L878.173 383.101L884.176 381.75C885.8 381.385 886.117 379.211 884.64 378.437L849.05 358.671C847.434 357.781 845.386 358.241 844.318 359.735L820.868 392.783C819.91 394.105 821.111 395.937 822.735 395.572L828.738 394.221L834.381 418.77C834.824 420.698 836.776 421.919 838.718 421.482L849.311 419.099C851.253 418.662 852.48 416.727 852.036 414.798Z" fill="#E6E6E6" fill-opacity="0.63"/>
<path opacity="0.12" d="M638.289 626.163C621.578 615.596 599.465 620.578 588.993 637.269C578.521 653.961 583.596 676.135 600.306 686.702C617.017 697.269 639.13 692.287 649.602 675.595C660.074 658.904 654.999 636.73 638.289 626.163ZM623.017 671.699C621.265 672.453 619.439 672.694 617.399 672.446C615.917 672.226 614.512 671.778 613.192 671.107L610.639 675.176C610.25 675.797 609.433 675.98 608.813 675.587L605.451 673.462C604.83 673.069 604.644 672.25 605.032 671.63L607.806 667.21C607.27 666.654 606.783 666.043 606.337 665.363C605.087 663.616 604.432 661.644 604.423 659.543C604.343 657.547 604.852 655.596 605.978 653.624C606.335 653 607.124 652.777 607.757 653.12L610.905 654.823C611.534 655.172 611.779 655.927 611.478 656.564C610.966 657.65 610.726 658.664 610.787 659.499C610.814 660.504 611.127 661.35 611.806 662.302C613.208 664.376 615.669 665.935 617.783 666.358C618.741 666.512 619.508 666.479 620.148 666.247C620.723 666.004 621.158 665.642 621.5 665.097C621.821 664.585 621.926 664.125 621.864 663.515C621.837 663.187 621.667 662.5 620.82 661.334C620.382 660.802 619.203 659.489 617.352 657.581C615.201 655.334 614.028 653.919 613.424 652.844C612.513 651.264 612.053 649.72 612.065 648.27C612.074 646.79 612.502 645.366 613.335 644.038C614.242 642.593 615.51 641.472 617.104 640.705C618.706 639.988 620.533 639.784 622.421 640.102C623.062 640.191 623.75 640.36 624.492 640.617L626.839 636.876C627.229 636.255 628.046 636.073 628.666 636.465L632.027 638.59C632.649 638.983 632.835 639.803 632.446 640.422L630.224 643.965C631.129 644.772 631.905 645.619 632.541 646.493C633.721 648.268 634.293 650.008 634.319 651.859C634.393 653.637 633.941 655.428 632.978 657.15C632.624 657.78 631.83 658.008 631.192 657.662L627.972 655.916C627.35 655.58 627.104 654.831 627.389 654.196C628.011 652.82 628.142 651.668 627.787 650.676C627.417 649.497 626.462 648.453 624.85 647.434C623.272 646.436 621.813 645.94 620.738 646.039C619.865 646.12 619.247 646.491 618.798 647.207C618.452 647.758 618.354 648.3 618.504 648.82C618.595 649.077 619.179 650.343 621.948 653.03C624.193 655.317 625.775 657.107 626.55 658.235C627.764 660.064 628.357 661.809 628.327 663.437C628.376 665.121 627.943 666.697 627.005 668.192C626.028 669.748 624.688 670.928 623.017 671.699Z" fill="#7E7E7E" fill-opacity="0.79"/>
<path d="M833.314 1319.79L844.906 1299.71L861.021 1309.12L849.429 1329.2C848.154 1331.41 848.924 1334.27 851.14 1335.56L863.226 1342.62C865.442 1343.91 868.298 1343.16 869.573 1340.95L885.801 1312.84L892.65 1316.83C894.503 1317.91 896.711 1316.14 895.996 1314.11L879.773 1264.22C879.03 1261.96 876.694 1260.6 874.375 1261.07L823.238 1271.66C821.172 1272.07 820.697 1274.85 822.55 1275.93L829.399 1279.93L813.171 1308.04C811.896 1310.25 812.665 1313.11 814.881 1314.41L826.967 1321.46C829.183 1322.75 832.039 1322 833.314 1319.79Z" fill="#E6E6E6" fill-opacity="0.63"/>
<path d="M160.335 310.963L168.634 313.238L167.279 326.194L170.417 328.625L183.349 324.587L187.418 331.715L177.31 340.701L177.801 344.627L189.678 350.104L187.392 358.363L174.372 357.015L171.929 360.137L175.987 373.006L168.824 377.056L159.794 366.997L155.848 367.485L150.344 379.304L142.045 377.029L143.4 364.073L140.262 361.642L127.33 365.68L123.261 358.552L133.369 349.566L132.878 345.639L121.001 340.162L123.287 331.904L136.307 333.252L138.75 330.13L134.692 317.26L141.855 313.211L150.885 323.27L154.831 322.781L160.335 310.963ZM158.769 332.746C155.467 331.841 151.94 332.278 148.962 333.961C145.985 335.644 143.801 338.435 142.891 341.721C141.982 345.006 142.421 348.516 144.112 351.48C145.804 354.443 148.609 356.616 151.91 357.521C155.212 358.426 158.739 357.989 161.717 356.306C164.694 354.623 166.878 351.831 167.788 348.546C168.697 345.261 168.258 341.75 166.567 338.787C164.875 335.824 162.07 333.651 158.769 332.746Z" fill="#BABABA" fill-opacity="0.3"/>
<path d="M362.335 1349.96L370.634 1352.24L369.279 1365.19L372.417 1367.62L385.349 1363.59L389.418 1370.71L379.31 1379.7L379.801 1383.63L391.678 1389.1L389.392 1397.36L376.372 1396.01L373.929 1399.14L377.987 1412.01L370.824 1416.06L361.794 1406L357.848 1406.49L352.344 1418.3L344.045 1416.03L345.4 1403.07L342.262 1400.64L329.33 1404.68L325.261 1397.55L335.369 1388.57L334.878 1384.64L323.001 1379.16L325.287 1370.9L338.307 1372.25L340.75 1369.13L336.692 1356.26L343.855 1352.21L352.885 1362.27L356.831 1361.78L362.335 1349.96ZM360.769 1371.75C357.467 1370.84 353.94 1371.28 350.962 1372.96C347.985 1374.64 345.801 1377.44 344.891 1380.72C343.982 1384.01 344.421 1387.52 346.112 1390.48C347.804 1393.44 350.609 1395.62 353.91 1396.52C357.212 1397.43 360.739 1396.99 363.717 1395.31C366.694 1393.62 368.878 1390.83 369.788 1387.55C370.697 1384.26 370.258 1380.75 368.567 1377.79C366.875 1374.82 364.07 1372.65 360.769 1371.75Z" fill="#BABABA" fill-opacity="0.3"/>
<path opacity="0.12" d="M72.9963 1476.03C54.8013 1483.77 46.324 1504.79 54.098 1522.89C61.872 1541 82.9972 1549.44 101.192 1541.7C119.387 1533.96 127.865 1512.94 120.091 1494.84C112.317 1476.73 91.1914 1468.29 72.9963 1476.03ZM101.767 1514.49C101.391 1516.36 100.551 1518 99.1869 1519.53C98.1634 1520.63 96.996 1521.53 95.6931 1522.23L97.588 1526.65C97.8773 1527.32 97.563 1528.1 96.8877 1528.38L93.228 1529.94C92.5509 1530.23 91.7712 1529.91 91.4827 1529.24L89.4239 1524.45C88.6625 1524.57 87.8826 1524.62 87.0693 1524.6C84.9216 1524.64 82.9271 1524.06 81.1938 1522.87C79.5071 1521.8 78.1914 1520.27 77.21 1518.22C76.899 1517.58 77.1645 1516.8 77.8068 1516.47L80.9975 1514.85C81.6428 1514.53 82.4023 1514.76 82.756 1515.37C83.3573 1516.41 84.0554 1517.18 84.777 1517.61C85.6191 1518.16 86.4933 1518.38 87.6622 1518.36C90.1656 1518.39 92.8468 1517.25 94.3969 1515.76C95.0685 1515.06 95.4779 1514.41 95.6505 1513.75C95.7782 1513.14 95.728 1512.57 95.4742 1511.98C95.2358 1511.43 94.9168 1511.08 94.3793 1510.78C94.0946 1510.62 93.4333 1510.37 91.9915 1510.4C91.3056 1510.46 89.5547 1510.68 86.9325 1511.12C83.8611 1511.61 82.0306 1511.77 80.8031 1511.66C78.9845 1511.51 77.4528 1511.01 76.2671 1510.17C75.0552 1509.32 74.1272 1508.16 73.5088 1506.72C72.8359 1505.15 72.635 1503.47 72.9102 1501.73C73.2313 1500 74.1029 1498.38 75.4376 1497.01C75.8761 1496.53 76.4058 1496.06 77.0397 1495.6L75.2974 1491.54C75.0082 1490.87 75.3225 1490.09 75.9978 1489.8L79.6575 1488.25C80.3345 1487.96 81.1142 1488.27 81.4027 1488.94L83.0527 1492.79C84.2311 1492.5 85.3689 1492.35 86.4501 1492.32C88.5808 1492.36 90.3376 1492.88 91.875 1493.91C93.3795 1494.86 94.5957 1496.25 95.4643 1498.02C95.782 1498.67 95.5177 1499.45 94.8702 1499.78L91.6025 1501.44C90.9723 1501.76 90.2167 1501.53 89.8563 1500.94C89.0785 1499.64 88.2056 1498.88 87.1878 1498.61C86.0075 1498.24 84.605 1498.43 82.8503 1499.18C81.1318 1499.91 79.8943 1500.83 79.3647 1501.77C78.935 1502.53 78.8884 1503.25 79.2219 1504.03C79.4787 1504.63 79.8684 1505.02 80.3814 1505.19C80.6447 1505.26 82.0178 1505.5 85.8032 1504.75C88.9612 1504.2 91.3334 1503.92 92.7014 1503.92C94.8966 1503.97 96.6695 1504.47 97.9905 1505.42C99.4035 1506.34 100.454 1507.59 101.151 1509.21C101.875 1510.9 102.083 1512.67 101.767 1514.49Z" fill="#7E7E7E" fill-opacity="0.79"/>
</g>
</svg>
