<svg width="239" height="239" viewBox="0 0 239 239" fill="none" xmlns="http://www.w3.org/2000/svg">
<path d="M199.167 55.7667H127.467V31.8667C127.467 29.7538 126.627 27.7274 125.133 26.2334C123.639 24.7393 121.613 23.9 119.5 23.9H39.8333C37.7204 23.9 35.6941 24.7393 34.2001 26.2334C32.706 27.7274 31.8667 29.7538 31.8667 31.8667V87.6333C31.8667 89.7462 32.706 91.7726 34.2001 93.2666C35.6941 94.7607 37.7204 95.6 39.8333 95.6H55.7667V103.567C55.7745 105.139 56.2478 106.675 57.1267 107.979C58.0057 109.283 59.2511 110.298 60.706 110.896C61.6515 111.342 62.6883 111.56 63.7333 111.533C64.7818 111.539 65.8212 111.338 66.7918 110.942C67.7624 110.546 68.6453 109.961 69.3897 109.223L82.933 95.6H111.533V119.5C111.533 121.613 112.373 123.639 113.867 125.133C115.361 126.627 117.387 127.467 119.5 127.467H156.067L169.61 141.09C170.355 141.828 171.238 142.412 172.208 142.809C173.179 143.205 174.218 143.406 175.267 143.4C176.312 143.427 177.349 143.209 178.294 142.763C179.749 142.165 180.994 141.15 181.873 139.846C182.752 138.541 183.225 137.006 183.233 135.433V127.467H199.167C201.28 127.467 203.306 126.627 204.8 125.133C206.294 123.639 207.133 121.613 207.133 119.5V63.7333C207.133 61.6204 206.294 59.5941 204.8 58.1001C203.306 56.606 201.28 55.7667 199.167 55.7667ZM79.6667 79.6667C78.6182 79.6606 77.5788 79.8616 76.6082 80.258C75.6376 80.6545 74.7547 81.2386 74.0103 81.977L71.222 84.845C70.6523 83.3202 69.6292 82.0065 68.2903 81.0807C66.9514 80.1548 65.3611 79.6614 63.7333 79.6667H47.8V39.8333H111.533V79.6667H79.6667ZM191.2 111.533H175.267C173.639 111.528 172.049 112.022 170.71 112.947C169.371 113.873 168.348 115.187 167.778 116.712L164.99 113.844C164.245 113.105 163.362 112.521 162.392 112.125C161.421 111.728 160.382 111.527 159.333 111.533H127.467V71.7H191.2V111.533ZM231.033 0H7.96667C5.85378 0 3.82742 0.839342 2.33338 2.33338C0.839342 3.82742 0 5.85378 0 7.96667V199.167C0 201.28 0.839342 203.306 2.33338 204.8C3.82742 206.294 5.85378 207.133 7.96667 207.133H87.6333V223.067H63.7333C61.6204 223.067 59.5941 223.906 58.1001 225.4C56.606 226.894 55.7667 228.92 55.7667 231.033C55.7667 233.146 56.606 235.173 58.1001 236.667C59.5941 238.161 61.6204 239 63.7333 239H175.267C177.38 239 179.406 238.161 180.9 236.667C182.394 235.173 183.233 233.146 183.233 231.033C183.233 228.92 182.394 226.894 180.9 225.4C179.406 223.906 177.38 223.067 175.267 223.067H151.367V207.133H231.033C233.146 207.133 235.173 206.294 236.667 204.8C238.161 203.306 239 201.28 239 199.167V7.96667C239 5.85378 238.161 3.82742 236.667 2.33338C235.173 0.839342 233.146 0 231.033 0ZM15.9333 15.9333H223.067V151.367H15.9333V15.9333ZM135.433 223.067H103.567V207.133H135.433V223.067ZM223.067 191.2H15.9333V167.3H223.067V191.2Z" fill="white" fill-opacity="0.1"/>
</svg>
