<svg width="362" height="298" viewBox="0 0 362 298" fill="none" xmlns="http://www.w3.org/2000/svg">
<path d="M361.969 265.714C361.918 264.759 361.618 263.768 360.889 262.855L318.018 209.327V69.7292C318.018 56.9218 306.757 46.5014 292.91 46.5014H281.814V17.3505C281.814 7.78339 273.402 0 263.063 0H192.522C173.091 0 157.284 14.6265 157.284 32.6058V46.5014H69.1416C55.3005 46.5014 44.0391 56.9218 44.0391 69.7292V209.327L1.16858 262.855C0.296658 263.946 -0.0986416 265.842 0.0208675 268.205C0.548404 278.586 11.0228 298 34.716 298H327.386C347.504 298.001 362.78 282.029 361.969 265.714ZM16.9586 260.718L52.5447 216.292H309.513L345.099 260.718H16.9586ZM84.3497 205.825C87.1281 186.463 105.022 171.461 126.664 171.461C148.337 171.461 166.257 186.462 169.039 205.825H84.3497ZM168.596 32.6052C168.596 20.3958 179.327 10.4662 192.522 10.4662H263.063C267.167 10.4662 270.503 13.5527 270.503 17.3505V47.299C270.503 59.5084 259.772 69.438 246.577 69.438H185.575C183.553 69.438 181.681 70.4398 180.67 72.0652L168.597 91.4906V32.6052H168.596ZM55.35 69.7292C55.35 62.6918 61.5362 56.9682 69.1409 56.9682H157.284V93.5348C157.284 103.686 171.832 107.28 177.3 98.4816L188.844 79.9042H246.577C262.371 79.9042 275.769 70.2402 280.232 56.9676H292.911C300.516 56.9676 306.707 62.6918 306.707 69.7285V205.824H180.469C177.632 180.669 154.59 160.994 126.664 160.994C98.7749 160.994 75.7542 180.669 72.9207 205.824H55.35V69.7292ZM327.386 287.534H34.716C23.8102 287.534 14.6328 280.572 12.0955 271.205H350.006C347.469 280.572 338.291 287.534 327.386 287.534Z" fill="white" fill-opacity="0.1"/>
<path d="M244.491 233.279H117.57C114.443 233.279 111.914 235.62 111.914 238.513C111.914 241.406 114.443 243.746 117.57 243.746H244.491C247.618 243.746 250.147 241.406 250.147 238.513C250.147 235.62 247.617 233.279 244.491 233.279ZM126.693 149.859C139.905 149.859 150.653 139.913 150.653 127.689V114.963C150.653 102.739 139.905 92.7936 126.693 92.7936C113.482 92.7936 102.734 102.739 102.734 114.963V127.689C102.734 139.913 113.482 149.859 126.693 149.859ZM114.046 114.963C114.046 108.509 119.718 103.26 126.694 103.26C133.67 103.26 139.342 108.508 139.342 114.963V127.689C139.342 134.143 133.67 139.393 126.694 139.393C119.719 139.393 114.046 134.144 114.046 127.689V114.963ZM191.535 34.5069H247.562C250.688 34.5069 253.217 32.1663 253.217 29.2735C253.217 26.3806 250.688 24.04 247.562 24.04H191.535C188.409 24.04 185.879 26.3806 185.879 29.2735C185.879 32.1663 188.409 34.5069 191.535 34.5069ZM191.535 55.8639H233.08C236.206 55.8639 238.736 53.5233 238.736 50.6305C238.736 47.7377 236.206 45.3971 233.08 45.3971H191.535C188.409 45.3971 185.879 47.7377 185.879 50.6305C185.879 53.5233 188.409 55.8639 191.535 55.8639Z" fill="white" fill-opacity="0.1"/>
</svg>
