<svg width="31" height="37" viewBox="0 0 31 37" fill="none" xmlns="http://www.w3.org/2000/svg">
<path d="M26.2083 0H4.625C2.06969 0 0 2.06969 0 4.625V32.375C0 34.9303 2.06969 37 4.625 37H26.2083C28.7636 37 30.8333 34.9303 30.8333 32.375V4.625C30.8333 2.06969 28.7636 0 26.2083 0ZM27.75 32.375C27.75 33.2268 27.0601 33.9167 26.2083 33.9167H4.625C3.77323 33.9167 3.08333 33.2268 3.08333 32.375V4.625C3.08333 3.77323 3.77323 3.08333 4.625 3.08333H26.2083C27.0601 3.08333 27.75 3.77323 27.75 4.625V32.375ZM21.5833 26.2083H9.25C8.84113 26.2083 8.449 26.3708 8.15988 26.6599C7.87076 26.949 7.70833 27.3411 7.70833 27.75C7.70833 28.1589 7.87076 28.551 8.15988 28.8401C8.449 29.1292 8.84113 29.2917 9.25 29.2917H21.5833C21.9922 29.2917 22.3843 29.1292 22.6735 28.8401C22.9626 28.551 23.125 28.1589 23.125 27.75C23.125 27.3411 22.9626 26.949 22.6735 26.6599C22.3843 26.3708 21.9922 26.2083 21.5833 26.2083ZM21.5833 20.0417H9.25C8.84113 20.0417 8.449 20.2041 8.15988 20.4932C7.87076 20.7823 7.70833 21.1745 7.70833 21.5833C7.70833 21.9922 7.87076 22.3843 8.15988 22.6735C8.449 22.9626 8.84113 23.125 9.25 23.125H21.5833C21.9922 23.125 22.3843 22.9626 22.6735 22.6735C22.9626 22.3843 23.125 21.9922 23.125 21.5833C23.125 21.1745 22.9626 20.7823 22.6735 20.4932C22.3843 20.2041 21.9922 20.0417 21.5833 20.0417ZM21.5833 13.875H9.25C8.84113 13.875 8.449 14.0374 8.15988 14.3265C7.87076 14.6157 7.70833 15.0078 7.70833 15.4167C7.70833 15.8255 7.87076 16.2177 8.15988 16.5068C8.449 16.7959 8.84113 16.9583 9.25 16.9583H21.5833C21.9922 16.9583 22.3843 16.7959 22.6735 16.5068C22.9626 16.2177 23.125 15.8255 23.125 15.4167C23.125 15.0078 22.9626 14.6157 22.6735 14.3265C22.3843 14.0374 21.9922 13.875 21.5833 13.875ZM9.25 10.7917H15.4167C15.8255 10.7917 16.2177 10.6292 16.5068 10.3401C16.7959 10.051 16.9583 9.65888 16.9583 9.25C16.9583 8.84112 16.7959 8.449 16.5068 8.15988C16.2177 7.87076 15.8255 7.70833 15.4167 7.70833H9.25C8.84113 7.70833 8.449 7.87076 8.15988 8.15988C7.87076 8.449 7.70833 8.84112 7.70833 9.25C7.70833 9.65888 7.87076 10.051 8.15988 10.3401C8.449 10.6292 8.84113 10.7917 9.25 10.7917Z" fill="#176CFF"/>
</svg>
