<svg width="982" height="4" viewBox="0 0 982 4" fill="none" xmlns="http://www.w3.org/2000/svg">
<path fill-rule="evenodd" clip-rule="evenodd" d="M979.996 0L982 0V4H979.996V0ZM969.976 0L973.984 0V4H969.976V0ZM959.955 0L963.963 0V4L959.955 4V0ZM949.935 0L953.943 0V4H949.935V0ZM939.914 0L943.922 0V4H939.914V0ZM929.894 0L933.902 0V4L929.894 4V0ZM919.873 0L923.882 0V4H919.873V0ZM909.853 0L913.861 0V4H909.853V0ZM899.833 0L903.841 0V4L899.833 4V0ZM889.812 0L893.82 0V4H889.812V0ZM879.792 0L883.8 0V4H879.792V0ZM869.771 0L873.78 0V4L869.771 4V0ZM859.751 0L863.759 0V4H859.751V0ZM849.731 0L853.739 0V4H849.731V0ZM839.71 0L843.718 0V4H839.71V0ZM829.69 0L833.698 0V4L829.69 4V0ZM819.669 0L823.678 0V4H819.669V0ZM809.649 0L813.657 0V4H809.649V0ZM799.629 0L803.637 0V4L799.629 4V0ZM789.608 0L793.616 0V4H789.608V0ZM779.588 0L783.596 0V4H779.588V0ZM769.567 0L773.576 0V4L769.567 4V0ZM759.547 0L763.555 0V4H759.547V0ZM749.527 0L753.535 0V4H749.527V0ZM739.506 0L743.514 0V4L739.506 4V0ZM729.486 0L733.494 0V4H729.486V0ZM719.465 0L723.474 0V4H719.465V0ZM709.445 0L713.453 0V4H709.445V0ZM699.425 0L703.433 0V4H699.425V0ZM689.404 0L693.412 0V4H689.404V0ZM679.384 0L683.392 0V4H679.384V0ZM669.363 0L673.372 0V4L669.363 4V0ZM659.343 0L663.351 0V4H659.343V0ZM649.323 0L653.331 0V4H649.323V0ZM639.302 0L643.31 0V4L639.302 4V0ZM629.282 0L633.29 0V4H629.282V0ZM619.262 0L623.27 0V4H619.262V0ZM609.241 0L613.249 0V4L609.241 4V0ZM599.221 0L603.229 0V4H599.221V0ZM589.2 0L593.208 0V4H589.2V0ZM579.18 0L583.188 0V4L579.18 4V0ZM569.16 0L573.168 0V4H569.16V0ZM559.139 0L563.147 0V4H559.139V0ZM549.119 0L553.127 0V4H549.119V0ZM539.098 0L543.107 0V4L539.098 4V0ZM529.078 0L533.086 0V4H529.078V0ZM519.058 0L523.066 0V4H519.058V0ZM509.037 0L513.045 0V4L509.037 4V0ZM499.017 0L503.025 0V4H499.017V0ZM488.996 0L493.005 0V4H488.996V0ZM478.976 0L482.984 0V4L478.976 4V0ZM468.956 0L472.964 0V4H468.956V0ZM458.935 0L462.943 0V4H458.935V0ZM448.915 0L452.923 0V4L448.915 4V0ZM438.894 0L442.903 0V4H438.894V0ZM428.874 0L432.882 0V4H428.874V0ZM418.854 0L422.862 0V4H418.854V0ZM408.833 0L412.841 0V4L408.833 4V0ZM398.813 0L402.821 0V4H398.813V0ZM388.792 0L392.8 0V4H388.792V0ZM378.772 0L382.78 0V4L378.772 4V0ZM368.751 0L372.759 0V4H368.751V0ZM358.731 0L362.739 0V4H358.731V0ZM348.71 0L352.719 0V4L348.71 4V0ZM338.69 0L342.698 0V4H338.69V0ZM328.669 0L332.678 0V4H328.669V0ZM318.649 0L322.657 0V4L318.649 4V0ZM308.629 0L312.637 0V4H308.629V0ZM298.608 0L302.616 0V4H298.608V0ZM288.588 0L292.596 0V4H288.588V0ZM278.567 0L282.575 0V4H278.567V0ZM268.547 0L272.555 0V4H268.547V0ZM258.526 0L262.535 0V4H258.526V0ZM248.506 0L252.514 0V4L248.506 4V0ZM238.485 0L242.494 0V4H238.485V0ZM228.465 0L232.473 0V4H228.465V0ZM218.445 0L222.453 0V4L218.445 4V0ZM208.424 0L212.432 0V4H208.424V0ZM198.404 0L202.412 0V4H198.404V0ZM188.383 0L192.391 0V4L188.383 4V0ZM178.363 0L182.371 0V4H178.363V0ZM168.342 0L172.35 0V4H168.342V0ZM158.322 0L162.33 0V4H158.322V0ZM148.301 0L152.31 0V4H148.301V0ZM138.281 0L142.289 0V4H138.281V0ZM128.26 0L132.269 0V4H128.26V0ZM118.24 0L122.248 0V4L118.24 4V0ZM108.22 0L112.228 0V4H108.22V0ZM98.1992 0L102.207 0V4H98.1992V0ZM88.1788 0L92.1869 0V4L88.1788 4V0ZM78.1583 0L82.1664 0V4H78.1583V0ZM68.1379 0L72.1461 0V4H68.1379V0ZM58.1174 0L62.1256 0V4L58.1174 4V0ZM48.097 0L52.1051 0V4H48.097V0ZM38.0765 0L42.0847 0V4H38.0765V0ZM28.056 0L32.0643 0V4L28.056 4V0ZM18.0356 0L22.0438 0V4H18.0356V0ZM8.0152 0L12.0233 0V4H8.0152V0ZM0 0L2.00293 0V4H0V0Z" fill="#C1C1C1"/>
</svg>
