<svg width="167" height="33" viewBox="0 0 167 33" fill="none" xmlns="http://www.w3.org/2000/svg">
<path fill-rule="evenodd" clip-rule="evenodd" d="M160.814 7.64972L165.287 11.5047C166.245 12.3297 166.245 13.6673 165.287 14.4923C164.33 15.3174 162.778 15.3174 161.821 14.4923L155.609 9.1388C154.651 8.31378 154.651 6.97616 155.609 6.15114C155.66 6.10703 155.713 6.0653 155.767 6.0259C155.787 6.00782 155.807 5.98994 155.827 5.9723L162.039 0.618761C162.996 -0.206254 164.549 -0.206254 165.506 0.618761C166.463 1.44378 166.463 2.78141 165.506 3.6064L160.814 7.64972Z" fill="#188EFF"/>
<path d="M8.21816 25.8669V10.0049H14.3782C17.7442 10.0049 19.3722 11.2809 19.3722 13.8769V14.3389C19.3722 15.7249 18.7562 17.0669 16.8642 17.5289C18.8002 17.8149 20.0982 18.9369 20.0982 21.1369V21.6869C20.0982 24.2829 18.4922 25.8669 15.0602 25.8669H8.21816ZM11.0122 18.7609V23.5349H13.5642C16.0502 23.5349 17.2162 23.2489 17.2162 21.3789V20.8949C17.2162 19.2449 16.1602 18.7609 13.1462 18.7609H11.0122ZM13.1682 12.3369H11.0122V16.4729H13.0802C15.2802 16.4729 16.5122 16.4069 16.5122 14.4269V14.0309C16.5122 12.6889 15.5442 12.3369 13.1682 12.3369ZM28.9011 9.76292C32.5091 9.76292 35.6111 11.7209 35.6111 16.6269V19.2449C35.6111 24.2389 32.5531 26.1089 28.9011 26.1089C25.2491 26.1089 22.1911 24.2389 22.1911 19.2449V16.6269C22.1911 11.7209 25.3151 9.76292 28.9011 9.76292ZM28.9011 23.5349C31.0571 23.5349 32.7731 22.5449 32.7731 18.8929V16.9789C32.7731 13.3269 31.0571 12.3369 28.9011 12.3369C26.7891 12.3369 25.0291 13.3269 25.0291 16.9789V18.8929C25.0291 22.5449 26.7891 23.5349 28.9011 23.5349ZM44.7351 9.76292C48.3431 9.76292 51.4451 11.7209 51.4451 16.6269V19.2449C51.4451 24.2389 48.3871 26.1089 44.7351 26.1089C41.0831 26.1089 38.0251 24.2389 38.0251 19.2449V16.6269C38.0251 11.7209 41.1491 9.76292 44.7351 9.76292ZM44.7351 23.5349C46.8911 23.5349 48.6071 22.5449 48.6071 18.8929V16.9789C48.6071 13.3269 46.8911 12.3369 44.7351 12.3369C42.6231 12.3369 40.8631 13.3269 40.8631 16.9789V18.8929C40.8631 22.5449 42.6231 23.5349 44.7351 23.5349ZM61.1411 23.2269L57.8631 14.8669C57.6431 14.3169 57.4231 13.6129 57.0491 12.4689V25.8669H54.4311V10.0049H58.4351L62.3291 19.8609L66.0691 10.0049H70.1171V25.8669H67.4551V12.4689C67.1251 13.7889 66.9051 14.2949 66.7071 14.8669L63.3851 23.2269H61.1411ZM73.6811 10.0049H83.8891V12.3369H76.4751V16.6049H83.4271V18.8929H76.4751V23.5349H84.0431V25.8669H73.6811V10.0049ZM95.7778 25.8669L93.1158 19.5089H89.8818V25.8669H87.0658V10.0049H93.0718C96.3718 10.0049 98.1978 11.8309 98.1978 14.3609V15.1749C98.1978 16.8249 97.3618 18.2549 95.7338 18.9809C96.7898 21.2909 97.7798 23.5569 98.8358 25.8669H95.7778ZM92.7198 12.3589H89.8818V17.1549H92.4778C94.6558 17.1549 95.4038 16.3189 95.4038 15.1089V14.4489C95.4038 13.2169 94.6558 12.3589 92.7198 12.3589ZM108.629 10.0049L114.591 25.8669H111.533L109.993 21.5109H104.647L103.085 25.8669H100.203L106.099 10.0049H108.629ZM106.539 15.9229L105.461 19.1569H109.179L108.101 15.9229C107.727 14.8669 107.529 14.2509 107.309 13.4809C107.067 14.3609 106.935 14.8009 106.539 15.9229ZM116.779 25.8669V10.0049H120.013L125.425 19.6189C125.755 20.2129 126.195 21.0929 126.437 22.1269V10.0049H129.077V25.8669H125.843L120.409 16.2309C120.013 15.5269 119.617 14.6909 119.419 13.7889V25.8669H116.779ZM139.102 9.76292C140.972 9.76292 142.886 10.2249 144.514 11.5449L142.996 13.7009C141.83 12.6669 140.422 12.3149 139.102 12.3149C136.66 12.3149 134.878 13.2169 134.878 17.2429V18.8709C134.878 22.3249 136.704 23.5569 139.278 23.5569C140.312 23.5569 141.082 23.4029 141.874 23.0949V19.2889H138.552V16.9349H144.668V24.6569C143.26 25.6029 141.038 26.1089 139.146 26.1089C135.12 26.1089 132.062 24.1729 132.062 19.4429V16.6049C132.062 11.8529 135.032 9.76292 139.102 9.76292Z" fill="#0075E4"/>
</svg>
