<svg width="34" height="34" viewBox="0 0 34 34" fill="none" xmlns="http://www.w3.org/2000/svg">
<path d="M1.41667 0C1.04094 0 0.680609 0.149256 0.414932 0.414932C0.149256 0.680609 0 1.04094 0 1.41667V24.0833C8.02363e-05 24.459 0.149389 24.8193 0.415084 25.0849L8.91508 33.5849C9.1807 33.8506 9.54097 33.9999 9.91667 34H32.5833C32.9591 34 33.3194 33.8507 33.5851 33.5851C33.8507 33.3194 34 32.9591 34 32.5833V1.41667C34 1.04094 33.8507 0.680609 33.5851 0.414932C33.3194 0.149256 32.9591 0 32.5833 0H1.41667ZM2.83333 2.83333H31.1667V31.1667H11.3333V24.0833C11.3333 23.7076 11.1841 23.3473 10.9184 23.0816C10.6527 22.8159 10.2924 22.6667 9.91667 22.6667H2.83333V2.83333Z" fill="#005DFF"/>
<path d="M11.3507 11.3335H22.6443C24.5597 11.3619 24.5597 8.47187 22.6443 8.50021H11.3507C11.1617 8.49736 10.9741 8.53238 10.7989 8.6032C10.6237 8.67403 10.4644 8.77923 10.3306 8.91259C10.1967 9.04595 10.0908 9.20477 10.0193 9.37969C9.94781 9.55461 9.91205 9.74208 9.91415 9.93104C9.92832 10.7201 10.5687 11.3449 11.3507 11.3335ZM11.3507 17.0002H22.6443C24.5597 17.0285 24.5597 14.1385 22.6443 14.1669H11.3507C11.1617 14.164 10.9741 14.199 10.7989 14.2699C10.6237 14.3407 10.4644 14.4459 10.3306 14.5793C10.1967 14.7126 10.0908 14.8714 10.0193 15.0464C9.94781 15.2213 9.91205 15.4087 9.91415 15.5977C9.92832 16.3868 10.5687 17.0115 11.3507 17.0002ZM17.0173 19.8335H22.6443C24.5597 19.8052 24.5597 22.6938 22.6443 22.6669H17.0173C16.8284 22.6697 16.6408 22.6347 16.4656 22.5639C16.2904 22.4931 16.1311 22.3879 15.9972 22.2545C15.8633 22.1211 15.7575 21.9623 15.686 21.7874C15.6145 21.6125 15.5787 21.425 15.5808 21.236C15.595 20.447 16.2353 19.8222 17.0173 19.8335Z" fill="#005DFF"/>
</svg>
