<svg width="1096" height="764" viewBox="0 0 1096 764" fill="none" xmlns="http://www.w3.org/2000/svg">
<g opacity="0.12">
<path d="M994.881 324.787L1004.17 303.411L1021.34 310.874L1012.06 332.25C1011.03 334.602 1012.13 337.365 1014.49 338.391L1027.37 343.989C1029.73 345.015 1032.5 343.931 1033.52 341.58L1046.53 311.653L1053.83 314.826C1055.8 315.684 1057.81 313.657 1056.86 311.722L1034.96 263.931C1033.96 261.768 1031.47 260.686 1029.2 261.431L979.316 278.024C977.299 278.672 977.142 281.501 979.117 282.359L986.417 285.531L973.412 315.457C972.39 317.808 973.486 320.572 975.848 321.598L988.729 327.196C991.091 328.222 993.859 327.138 994.881 324.787Z" fill="white"/>
</g>
<g opacity="0.12">
<path d="M229.983 398.122L239.272 376.747L256.447 384.21L247.158 405.586C246.136 407.937 247.233 410.701 249.594 411.727L262.475 417.325C264.837 418.351 267.605 417.267 268.627 414.916L281.632 384.989L288.931 388.161C290.906 389.02 292.91 386.993 291.964 385.058L270.058 337.267C269.058 335.104 266.567 334.022 264.304 334.767L214.419 351.36C212.402 352.008 212.244 354.836 214.22 355.695L221.519 358.867L208.514 388.793C207.492 391.144 208.589 393.908 210.95 394.934L223.831 400.532C226.193 401.558 228.961 400.474 229.983 398.122Z" fill="white"/>
</g>
<g opacity="0.12">
<path d="M93.6953 95.8255L81.9094 75.7182L98.0653 66.2484L109.851 86.3558C111.148 88.5676 114.026 89.3119 116.247 88.0098L128.364 80.9075C130.586 79.6054 131.342 76.7304 130.046 74.5186L113.546 46.3683L120.412 42.3436C122.27 41.2546 121.815 38.4415 119.694 38.0637L68.1788 27.5738C65.8425 27.1061 63.4999 28.4792 62.7665 30.7461L46.7503 80.8196C46.0842 82.831 48.276 84.6261 50.1339 83.537L57.0001 79.5124L73.5004 107.663C74.7969 109.875 77.6751 110.619 79.8966 109.317L92.0135 102.214C94.2349 100.912 94.9917 98.0374 93.6953 95.8255Z" fill="white"/>
</g>
<g opacity="0.12">
<path d="M81.6426 723.712L79.788 705.869L94.1248 704.379L95.9793 722.222C96.1833 724.185 97.9631 725.623 99.9344 725.418L110.687 724.301C112.658 724.096 114.104 722.322 113.9 720.359L111.304 695.379L117.397 694.746C119.046 694.574 119.623 692.458 118.257 691.518L85.5002 667.76C84.0121 666.689 81.9333 666.905 80.6974 668.259L53.5267 698.246C52.4193 699.443 53.3834 701.399 55.0322 701.228L61.1253 700.594L63.7217 725.575C63.9257 727.538 65.7055 728.976 67.6768 728.771L78.4293 727.653C80.4006 727.449 81.8466 725.675 81.6426 723.712Z" fill="white"/>
</g>
<path d="M590.997 242.403L544.36 260.026C542.673 260.664 541.308 261.943 540.565 263.583C539.821 265.223 539.761 267.089 540.396 268.771L549.982 294.137C550.617 295.819 551.897 297.179 553.539 297.918C555.181 298.656 557.051 298.713 558.738 298.076L605.375 280.452C607.062 279.815 608.427 278.535 609.17 276.895C609.914 275.255 609.974 273.389 609.339 271.707L599.753 246.341C599.117 244.659 597.838 243.299 596.196 242.561C594.554 241.822 592.684 241.765 590.997 242.403ZM601.968 265.023L601.819 265.079C601.287 265.404 600.774 265.759 600.283 266.143L600.026 266.361C599.61 266.735 599.195 267.11 598.816 267.518L598.631 267.733C598.23 268.185 597.861 268.664 597.525 269.166L597.316 269.511C596.652 270.55 596.14 271.679 595.797 272.863L595.675 273.247C595.52 273.83 595.404 274.422 595.328 275.021L595.297 275.322C595.241 275.87 595.214 276.42 595.217 276.971C595.233 277.089 595.237 277.209 595.231 277.328C595.262 277.942 595.331 278.553 595.438 279.158C595.464 279.205 595.483 279.254 595.494 279.306L565.434 290.665C565.409 290.619 565.39 290.569 565.378 290.517C565.059 289.993 564.706 289.488 564.323 289.008C564.274 288.906 564.234 288.8 564.204 288.691C563.842 288.276 563.458 287.88 563.054 287.507L562.698 287.399C562.246 287.001 561.767 286.633 561.265 286.298L560.92 286.091C559.879 285.43 558.749 284.921 557.563 284.581L557.178 284.461C556.595 284.306 556.001 284.192 555.401 284.118L555.12 284.079C554.566 284.023 554.007 284.017 553.447 284.011L553.11 284.017C552.488 284.054 551.869 284.127 551.255 284.235L551.106 284.291L547.767 275.455L547.916 275.399C548.448 275.074 548.961 274.719 549.452 274.336L549.749 274.223C550.164 273.849 550.58 273.474 550.959 273.066L551.144 272.851C551.544 272.399 551.914 271.92 552.25 271.418L552.459 271.074C553.123 270.034 553.635 268.905 553.978 267.721L554.099 267.337C554.255 266.754 554.371 266.162 554.447 265.563L554.478 265.262C554.519 264.657 554.525 264.05 554.494 263.444C554.445 263.342 554.405 263.236 554.374 263.127C554.343 262.513 554.274 261.902 554.167 261.297C554.141 261.25 554.122 261.201 554.111 261.149L584.277 249.75C584.302 249.796 584.321 249.846 584.333 249.898C584.652 250.422 585.005 250.927 585.388 251.407C585.471 251.493 585.547 251.585 585.613 251.684C585.975 252.099 586.359 252.495 586.763 252.868L586.986 253.074C587.439 253.473 587.918 253.84 588.42 254.175L588.765 254.383C589.805 255.043 590.936 255.552 592.121 255.892L592.506 256.013C593.09 256.167 593.684 256.281 594.283 256.356L594.564 256.394C595.118 256.451 595.678 256.457 596.237 256.463L596.534 256.351C597.156 256.313 597.776 256.241 598.39 256.132L598.538 256.076L601.968 265.023ZM585.467 266.234C586.257 268.324 586.407 270.603 585.899 272.781C585.392 274.959 584.248 276.939 582.614 278.471C580.979 280.003 578.927 281.018 576.717 281.387C574.507 281.756 572.238 281.463 570.197 280.545C568.156 279.627 566.435 278.125 565.251 276.23C564.067 274.334 563.474 272.129 563.546 269.895C563.619 267.661 564.354 265.497 565.658 263.676C566.962 261.856 568.777 260.462 570.874 259.67C573.685 258.608 576.801 258.702 579.538 259.933C582.275 261.164 584.408 263.431 585.467 266.234Z" fill="white" fill-opacity="0.11"/>
<path d="M66.758 411.863L21.9595 389.984C20.3393 389.192 18.472 389.075 16.7684 389.658C15.0649 390.241 13.6645 391.476 12.8755 393.091L0.975001 417.457C0.185951 419.073 0.0728316 420.937 0.660529 422.639C1.24823 424.341 2.4886 425.741 4.10878 426.533L48.9073 448.412C50.5275 449.204 52.3948 449.321 54.0984 448.738C55.8019 448.155 57.2023 446.92 57.9913 445.305L69.8918 420.939C70.6809 419.323 70.794 417.459 70.2063 415.757C69.6186 414.055 68.3782 412.655 66.758 411.863ZM57.8062 435.356L57.6637 435.286C57.0624 435.122 56.4523 434.992 55.8363 434.897L55.5016 434.859C54.944 434.813 54.3864 434.767 53.8294 434.772L53.5459 434.784C52.9421 434.802 52.3403 434.861 51.7447 434.961L51.3505 435.045C50.1383 435.273 48.9656 435.675 47.8683 436.236L47.5055 436.411C46.9744 436.697 46.4633 437.019 45.9759 437.374L45.7347 437.558C45.2973 437.892 44.8783 438.25 44.4797 438.63C44.404 438.722 44.3202 438.808 44.2291 438.885C43.8032 439.328 43.4055 439.797 43.0384 440.29C43.0221 440.34 42.9987 440.388 42.969 440.432L14.0943 426.33C14.1106 426.279 14.134 426.231 14.1637 426.187C14.3267 425.595 14.4523 424.993 14.5399 424.384C14.5807 424.279 14.6305 424.177 14.6887 424.08C14.743 423.532 14.7677 422.982 14.7626 422.431L14.597 422.099C14.5774 421.496 14.517 420.895 14.4162 420.3L14.331 419.907C14.0991 418.696 13.6945 417.524 13.1297 416.428L12.9537 416.065C12.6658 415.534 12.3424 415.023 11.9856 414.536L11.8211 414.305C11.4822 413.863 11.1031 413.451 10.724 413.04L10.4885 412.799C10.0349 412.371 9.55726 411.97 9.05779 411.597L8.91525 411.528L13.0606 403.04L13.2031 403.11C13.8044 403.274 14.4145 403.404 15.0305 403.499L15.3156 403.638C15.8732 403.684 16.4308 403.73 16.9879 403.726L17.2714 403.714C17.8751 403.695 18.4769 403.636 19.0726 403.537L19.4667 403.453C20.6789 403.224 21.8516 402.823 22.9489 402.262L23.3118 402.087C23.8429 401.8 24.3539 401.479 24.8414 401.124L25.0825 400.94C25.5515 400.555 25.9971 400.143 26.4168 399.705C26.4576 399.6 26.5074 399.498 26.5656 399.401C26.9915 398.958 27.3892 398.488 27.7563 397.995C27.7727 397.945 27.796 397.897 27.8257 397.853L56.8022 412.006C56.7859 412.056 56.7625 412.104 56.7328 412.148C56.5699 412.74 56.4442 413.342 56.3566 413.951C56.3517 414.07 56.336 414.189 56.3097 414.305C56.2553 414.853 56.2306 415.403 56.2358 415.954L56.239 416.257C56.2586 416.86 56.319 417.461 56.4198 418.056L56.505 418.449C56.7369 419.66 57.1415 420.831 57.7063 421.928L57.8823 422.291C58.1702 422.821 58.4936 423.332 58.8504 423.82L59.0149 424.051C59.3538 424.493 59.7329 424.905 60.112 425.316L60.3971 425.455C60.8506 425.883 61.3283 426.284 61.8278 426.657L61.9703 426.727L57.8062 435.356ZM45.6149 424.171C44.6342 426.179 43.0784 427.85 41.1442 428.973C39.21 430.096 36.9843 430.621 34.7486 430.481C32.5129 430.34 30.3675 429.542 28.5838 428.185C26.8002 426.829 25.4582 424.976 24.7278 422.861C23.9973 420.745 23.9112 418.463 24.4802 416.302C25.0492 414.14 26.2478 412.197 27.9245 410.719C29.6011 409.24 31.6805 408.292 33.8997 407.994C36.1189 407.696 38.3782 408.062 40.3919 409.046C43.0922 410.364 45.1595 412.699 46.139 415.535C47.1185 418.372 46.93 421.478 45.6149 424.171Z" fill="white" fill-opacity="0.11"/>
<path d="M884.714 7.52249L831.399 51.4804C829.471 53.0701 828.251 55.3586 828.009 57.8423C827.766 60.326 828.521 62.8015 830.106 64.7241L854.015 93.7223C855.6 95.645 857.886 96.8574 860.371 97.0928C862.855 97.3282 865.334 96.5674 867.262 94.9776L920.577 51.0197C922.506 49.4299 923.725 47.1415 923.968 44.6578C924.21 42.1741 923.456 39.6986 921.87 37.7759L897.962 8.77777C896.377 6.85507 894.09 5.64266 891.606 5.40725C889.121 5.17184 886.643 5.93271 884.714 7.52249ZM909.213 32.2994L909.044 32.4392C908.491 33.1032 907.977 33.7983 907.504 34.521L907.264 34.9216C906.886 35.5986 906.508 36.2757 906.194 36.9811L906.047 37.3458C905.723 38.118 905.452 38.911 905.236 39.7195L905.116 40.265C904.708 41.9256 904.541 43.6352 904.62 45.3418L904.632 45.8999C904.688 46.7342 904.801 47.5635 904.969 48.3823L905.063 48.7922C905.234 49.536 905.445 50.2699 905.695 50.9907C905.768 51.1391 905.827 51.2939 905.873 51.4531C906.187 52.2447 906.551 53.0158 906.962 53.7617C907.016 53.8113 907.063 53.8682 907.101 53.9309L872.737 82.2637C872.683 82.2142 872.636 82.1573 872.598 82.0946C871.944 81.5489 871.256 81.0448 870.539 80.5852C870.429 80.4731 870.329 80.3518 870.24 80.2227C869.58 79.8397 868.9 79.4926 868.203 79.1831L867.688 79.2012C866.917 78.88 866.124 78.6114 865.316 78.3971L864.77 78.2786C863.11 77.8764 861.4 77.7143 859.692 77.7974L859.134 77.8113C858.299 77.8699 857.469 77.9847 856.649 78.1551L856.263 78.2299C855.51 78.4036 854.774 78.6457 854.037 78.8878L853.598 79.0467C852.798 79.3735 852.018 79.7458 851.261 80.1619L851.091 80.3017L842.763 70.2007L842.933 70.0608C843.485 69.3968 844 68.7018 844.473 67.9791L844.812 67.6993C845.19 67.0223 845.568 66.3453 845.882 65.6399L846.029 65.2751C846.353 64.5029 846.624 63.7099 846.841 62.9014L846.961 62.3559C847.368 60.6953 847.535 58.9857 847.456 57.2791L847.444 56.721C847.388 55.8867 847.275 55.0574 847.107 54.2386L847.013 53.8287C846.797 53.0163 846.533 52.2176 846.222 51.4369C846.112 51.3248 846.012 51.2035 845.923 51.0744C845.608 50.2828 845.245 49.5117 844.834 48.7657C844.779 48.7162 844.732 48.6593 844.694 48.5966L879.179 20.1638C879.234 20.2134 879.281 20.2703 879.319 20.333C879.973 20.8786 880.66 21.3828 881.378 21.8424C881.525 21.9172 881.666 22.005 881.798 22.105C882.457 22.488 883.138 22.8351 883.835 23.1446L884.22 23.3147C884.991 23.6359 885.784 23.9045 886.592 24.1187L887.138 24.2373C888.798 24.6395 890.508 24.8016 892.216 24.7185L892.775 24.7045C893.609 24.646 894.44 24.5312 895.259 24.3608L895.645 24.286C896.398 24.1122 897.134 23.8702 897.871 23.6281L898.21 23.3483C899.01 23.0216 899.79 22.6492 900.548 22.2332L900.717 22.0933L909.213 32.2994ZM888.105 41.2596C890.076 43.6493 891.291 46.5713 891.598 49.656C891.905 52.7407 891.289 55.8497 889.829 58.5897C888.369 61.3297 886.13 63.5777 883.395 65.0495C880.66 66.5212 877.552 67.1506 874.464 66.858C871.377 66.5654 868.447 65.364 866.048 63.4057C863.648 61.4474 861.884 58.8201 860.981 55.8562C860.078 52.8922 860.075 49.7247 860.973 46.7541C861.871 43.7836 863.63 41.1434 866.026 39.1675C869.24 36.5178 873.372 35.2497 877.512 35.6421C881.653 36.0344 885.463 38.0551 888.105 41.2596Z" fill="white" fill-opacity="0.11"/>
<path d="M710.585 673.995L657.27 717.953C655.342 719.543 654.123 721.831 653.88 724.315C653.638 726.799 654.392 729.274 655.977 731.197L679.886 760.195C681.471 762.118 683.757 763.33 686.242 763.565C688.726 763.801 691.205 763.04 693.133 761.45L746.448 717.492C748.377 715.903 749.596 713.614 749.839 711.13C750.081 708.647 749.327 706.171 747.742 704.249L723.833 675.25C722.248 673.328 719.961 672.115 717.477 671.88C714.993 671.644 712.514 672.405 710.585 673.995ZM735.085 698.772L734.915 698.912C734.362 699.576 733.848 700.271 733.375 700.994L733.135 701.394C732.757 702.071 732.379 702.748 732.065 703.454L731.918 703.818C731.594 704.591 731.323 705.384 731.107 706.192L730.987 706.738C730.58 708.398 730.413 710.108 730.491 711.814L730.503 712.373C730.56 713.207 730.672 714.036 730.84 714.855L730.934 715.265C731.105 716.009 731.316 716.743 731.566 717.463C731.639 717.612 731.699 717.767 731.744 717.926C732.058 718.717 732.422 719.488 732.833 720.234C732.887 720.284 732.934 720.341 732.973 720.404L698.608 748.736C698.554 748.687 698.507 748.63 698.469 748.567C697.815 748.022 697.128 747.517 696.41 747.058C696.301 746.946 696.201 746.824 696.111 746.695C695.452 746.312 694.771 745.965 694.074 745.656L693.56 745.674C692.788 745.353 691.995 745.084 691.187 744.87L690.641 744.751C688.981 744.349 687.271 744.187 685.563 744.27L685.005 744.284C684.17 744.343 683.34 744.457 682.52 744.628L682.134 744.703C681.382 744.876 680.645 745.118 679.908 745.36L679.469 745.519C678.67 745.846 677.889 746.218 677.132 746.635L676.962 746.774L668.634 736.673L668.804 736.534C669.357 735.869 669.871 735.174 670.344 734.452L670.683 734.172C671.061 733.495 671.44 732.818 671.753 732.113L671.901 731.748C672.224 730.976 672.495 730.183 672.712 729.374L672.832 728.829C673.239 727.168 673.406 725.458 673.327 723.752L673.315 723.194C673.259 722.359 673.146 721.53 672.978 720.711L672.884 720.301C672.668 719.489 672.404 718.69 672.093 717.91C671.983 717.797 671.883 717.676 671.794 717.547C671.48 716.755 671.116 715.984 670.705 715.238C670.651 715.189 670.604 715.132 670.565 715.069L705.051 686.636C705.105 686.686 705.152 686.743 705.19 686.806C705.844 687.351 706.531 687.855 707.249 688.315C707.396 688.39 707.537 688.478 707.669 688.578C708.329 688.961 709.009 689.308 709.706 689.617L710.091 689.787C710.863 690.109 711.655 690.377 712.464 690.591L713.009 690.71C714.669 691.112 716.379 691.274 718.087 691.191L718.646 691.177C719.481 691.119 720.311 691.004 721.13 690.833L721.517 690.759C722.269 690.585 723.006 690.343 723.742 690.101L724.082 689.821C724.881 689.494 725.662 689.122 726.419 688.706L726.588 688.566L735.085 698.772ZM713.976 707.732C715.947 710.122 717.162 713.044 717.469 716.129C717.776 719.213 717.16 722.322 715.7 725.062C714.24 727.802 712.001 730.05 709.266 731.522C706.531 732.994 703.423 733.623 700.335 733.331C697.248 733.038 694.319 731.837 691.919 729.878C689.519 727.92 687.756 725.293 686.852 722.329C685.949 719.365 685.946 716.197 686.844 713.227C687.742 710.256 689.501 707.616 691.897 705.64C695.111 702.991 699.243 701.722 703.383 702.115C707.524 702.507 711.334 704.528 713.976 707.732Z" fill="white" fill-opacity="0.11"/>
<path d="M1009.99 521.848L941.607 531.81C939.135 532.17 936.906 533.495 935.411 535.493C933.916 537.492 933.278 540 933.638 542.466L939.056 579.657C939.415 582.122 940.742 584.344 942.745 585.833C944.747 587.322 947.262 587.956 949.735 587.596L1018.11 577.634C1020.59 577.274 1022.81 575.949 1024.31 573.95C1025.8 571.952 1026.44 569.444 1026.08 566.978L1020.66 529.787C1020.31 527.321 1018.98 525.099 1016.98 523.611C1014.97 522.122 1012.46 521.488 1009.99 521.848ZM1018.1 555.735L1017.88 555.766C1017.06 556.048 1016.26 556.376 1015.48 556.748L1015.07 556.967C1014.4 557.35 1013.72 557.733 1013.09 558.173L1012.77 558.409C1012.1 558.902 1011.45 559.44 1010.85 560.019L1010.46 560.423C1009.25 561.632 1008.23 563.008 1007.41 564.508L1007.13 564.992C1006.75 565.734 1006.41 566.502 1006.13 567.289L1006 567.688C1005.76 568.413 1005.56 569.15 1005.4 569.896C1005.39 570.061 1005.36 570.224 1005.31 570.384C1005.17 571.224 1005.08 572.072 1005.05 572.923C1005.07 572.993 1005.08 573.066 1005.08 573.14L961.006 579.56C960.986 579.49 960.975 579.417 960.975 579.343C960.698 578.538 960.372 577.75 959.997 576.986C959.961 576.833 959.938 576.677 959.929 576.521C959.563 575.851 959.161 575.202 958.725 574.576L958.276 574.325C957.782 573.65 957.243 573.009 956.663 572.407L956.258 572.023C955.047 570.819 953.668 569.794 952.165 568.98L951.68 568.702C950.935 568.32 950.166 567.988 949.377 567.708L949.008 567.572C948.274 567.331 947.519 567.156 946.763 566.981L946.306 566.89C945.452 566.755 944.592 566.669 943.729 566.632L943.511 566.664L941.624 553.709L941.841 553.677C942.658 553.396 943.458 553.068 944.238 552.695L944.673 552.632C945.347 552.249 946.021 551.866 946.655 551.425L946.97 551.189C947.647 550.697 948.29 550.159 948.894 549.58L949.279 549.176C950.488 547.966 951.517 546.591 952.335 545.091L952.613 544.607C952.997 543.864 953.331 543.097 953.612 542.309L953.744 541.91C953.98 541.104 954.168 540.283 954.307 539.455C954.271 539.302 954.248 539.146 954.239 538.99C954.38 538.15 954.469 537.302 954.504 536.451C954.483 536.38 954.472 536.307 954.472 536.234L998.7 529.79C998.721 529.861 998.732 529.934 998.732 530.007C999.008 530.813 999.335 531.6 999.71 532.365C999.798 532.506 999.873 532.654 999.933 532.807C1000.3 533.477 1000.7 534.126 1001.14 534.753L1001.38 535.097C1001.87 535.772 1002.41 536.412 1002.99 537.015L1003.4 537.399C1004.61 538.603 1005.99 539.628 1007.49 540.442L1007.97 540.72C1008.72 541.102 1009.49 541.434 1010.28 541.713L1010.65 541.85C1011.38 542.091 1012.13 542.266 1012.89 542.44L1013.33 542.377C1014.18 542.512 1015.04 542.598 1015.9 542.635L1016.12 542.603L1018.1 555.735ZM995.401 552.458C995.847 555.523 995.372 558.652 994.036 561.449C992.7 564.246 990.562 566.586 987.893 568.172C985.224 569.759 982.144 570.521 979.043 570.362C975.941 570.203 972.957 569.131 970.468 567.28C967.979 565.43 966.096 562.884 965.059 559.966C964.021 557.047 963.875 553.886 964.639 550.883C965.402 547.881 967.042 545.17 969.349 543.095C971.657 541.02 974.529 539.673 977.603 539.226C981.724 538.625 985.915 539.682 989.253 542.164C992.59 544.645 994.802 548.348 995.401 552.458Z" fill="white" fill-opacity="0.11"/>
</svg>
