<svg width="77" height="77" viewBox="0 0 77 77" fill="none" xmlns="http://www.w3.org/2000/svg">
<path d="M38.5 77C59.763 77 77 59.763 77 38.5C77 17.237 59.763 0 38.5 0C17.237 0 0 17.237 0 38.5C0 59.763 17.237 77 38.5 77Z" fill="#C0C6D1"/>
<path d="M38.4988 34.1422C45.4923 34.1422 51.1617 28.4728 51.1617 21.4793C51.1617 14.4858 45.4923 8.81641 38.4988 8.81641C31.5053 8.81641 25.8359 14.4858 25.8359 21.4793C25.8359 28.4728 31.5053 34.1422 38.4988 34.1422Z" fill="#F6F7F8"/>
<path d="M38.4936 68.1811C33.8412 68.1809 29.3139 66.6749 25.5884 63.8882C21.863 61.1015 19.1396 57.1838 17.8254 52.7209C15.5575 45.0194 21.331 37.2969 29.3604 37.2969H47.6268C55.6562 37.2969 61.4297 45.0164 59.1618 52.7179C57.8482 57.1814 55.125 61.0997 51.3995 63.887C47.674 66.6743 43.1464 68.1807 38.4936 68.1811Z" fill="#E9EBEF"/>
<path d="M51.8978 57.3353L48.9983 58.4994C48.4614 58.7136 47.8628 58.7136 47.3259 58.4994L44.4279 57.3323C44.154 57.2229 43.9192 57.0338 43.7538 56.7896C43.5884 56.5454 43.5 56.2572 43.5 55.9623V48.0066C43.5024 47.6904 43.6291 47.3878 43.8529 47.1643C44.0766 46.9409 44.3794 46.8145 44.6956 46.8125H51.6286C51.9448 46.8145 52.2476 46.9409 52.4713 47.1643C52.6951 47.3878 52.8219 47.6904 52.8242 48.0066V55.9653C52.8243 56.2601 52.7362 56.5481 52.571 56.7923C52.4059 57.0365 52.1714 57.2257 51.8978 57.3353Z" fill="#37A1F7"/>
</svg>
