<svg width="593" height="80" viewBox="0 0 593 80" fill="none" xmlns="http://www.w3.org/2000/svg">
<circle cx="553.003" cy="40.202" r="39.3444" transform="rotate(-36.2588 553.003 40.202)" fill="white" fill-opacity="0.24"/>
<path d="M559.615 59.5887L551.036 47.8924L560.434 40.9994L569.013 52.6958C569.957 53.9824 571.786 54.2596 573.078 53.3118L580.127 48.1421C581.419 47.1943 581.704 45.3662 580.76 44.0796L568.75 27.7047L572.744 24.7752C573.825 23.9825 573.363 22.27 572.026 22.1713L539.465 18.9629C537.989 18.8224 536.626 19.8219 536.317 21.2721L529.595 53.2931C529.311 54.5807 530.783 55.5522 531.863 54.7595L535.858 51.83L547.868 68.2049C548.812 69.4915 550.641 69.7687 551.933 68.8209L558.981 63.6512C560.274 62.7034 560.559 60.8753 559.615 59.5887Z" fill="#4488FF"/>
<g opacity="0.14">
<circle cx="38.122" cy="40.1201" r="31" transform="rotate(15.4023 38.122 40.1201)" fill="white"/>
<path d="M41.3164 18.1791L46.6189 19.6399L45.7534 27.9588L47.758 29.5193L56.0213 26.9267L58.6211 31.5037L52.1625 37.2734L52.4764 39.7944L60.0649 43.3112L58.6041 48.6136L50.2852 47.7481L48.7246 49.7528L51.3173 58.016L46.7403 60.6159L40.9706 54.1573L38.4495 54.4711L34.9328 62.0596L29.6303 60.5988L30.4958 52.2799L28.4912 50.7193L20.2279 53.312L17.6281 48.735L24.0867 42.9653L23.7729 40.4443L16.1844 36.9275L17.6451 31.625L25.964 32.4906L27.5246 30.4859L24.9319 22.2227L29.5089 19.6228L35.2787 26.0814L37.7997 25.7676L41.3164 18.1791ZM40.3158 32.1656C38.2063 31.5845 35.9524 31.8652 34.0499 32.9459C32.1473 34.0265 30.752 35.8187 30.1709 37.9282C29.5898 40.0376 29.8704 42.2916 30.9511 44.1941C32.0318 46.0966 33.824 47.4919 35.9335 48.073C38.0429 48.6542 40.2968 48.3735 42.1993 47.2928C44.1019 46.2122 45.4972 44.4199 46.0783 42.3105C46.6594 40.201 46.3788 37.9471 45.2981 36.0446C44.2174 34.1421 42.4252 32.7468 40.3158 32.1656Z" fill="#4488FF"/>
</g>
</svg>
