<svg width="34" height="29" viewBox="0 0 17 29" fill="none" xmlns="http://www.w3.org/2000/svg">
<path d="M6.22392 20.2887C6.14759 20.2885 6.07208 20.2721 6.00185 20.2403C5.93162 20.2086 5.8681 20.1622 5.81507 20.104C5.76204 20.0457 5.72056 19.9767 5.69311 19.9011C5.66565 19.8256 5.65277 19.7449 5.65523 19.6639C5.67054 18.8332 5.7551 18.0056 5.90794 17.1907C6.06869 16.3495 6.36187 15.5431 6.77517 14.8053C7.22824 14.0318 7.79132 13.3374 8.44443 12.7466C8.97195 12.2764 9.47325 11.7741 9.94581 11.2421C10.3468 10.7951 10.6887 10.2923 10.9622 9.74759C11.2129 9.23049 11.341 8.65629 11.3353 8.07478C11.3988 7.21084 11.1486 6.35383 10.6358 5.6795C10.3608 5.4003 10.0335 5.18555 9.67532 5.04915C9.31709 4.91275 8.93587 4.85775 8.55635 4.88772C7.8276 4.88592 7.12137 5.15564 6.56077 5.64986C6.29693 5.89593 6.08263 6.19604 5.93074 6.53217C5.77884 6.8683 5.69246 7.23353 5.6768 7.60596C5.66288 7.75543 5.59731 7.89413 5.49275 7.99533C5.38819 8.09653 5.25203 8.15305 5.11052 8.15401H0.569003C0.490715 8.15371 0.41332 8.13633 0.341628 8.10294C0.269935 8.06956 0.205475 8.02088 0.152253 7.95994C0.0990312 7.899 0.0581832 7.82709 0.0322471 7.74869C0.00631112 7.67028 -0.00415903 7.58706 0.00148701 7.50418C0.0479259 6.09705 0.448465 4.72879 1.1615 3.54151C1.91577 2.34971 2.98693 1.42293 4.23877 0.87902C5.6091 0.287937 7.07735 -0.00488958 8.55636 0.0179247C10.7822 -0.124447 12.9824 0.58491 14.7576 2.01725C15.5171 2.73883 16.1123 3.63403 16.4983 4.63532C16.8844 5.63662 17.0513 6.71789 16.9863 7.7976C17.0095 8.85003 16.7919 9.89272 16.3522 10.8363C15.9111 11.7274 15.3487 12.5445 14.6829 13.2612C13.9929 14.0135 13.2376 14.7987 12.4169 15.6169C11.785 16.1641 11.2941 16.8724 10.9902 17.6756C10.7771 18.3393 10.6507 19.0308 10.6143 19.7309C10.6037 19.8826 10.5394 20.0245 10.4342 20.128C10.3291 20.2314 10.191 20.2888 10.0476 20.2887L6.22392 20.2887ZM5.05006 25.8484C5.03975 25.4314 5.11062 25.0166 5.25823 24.63C5.40584 24.2435 5.62702 23.8934 5.90794 23.6017C6.21342 23.2952 6.5741 23.0574 6.96832 22.9027C7.36255 22.7479 7.78217 22.6793 8.20201 22.7009C8.62047 22.6787 9.03881 22.7471 9.43157 22.9019C9.82434 23.0568 10.1833 23.2949 10.4866 23.6017C11.0312 24.2048 11.3353 25.008 11.3353 25.8435C11.3353 26.6789 11.0312 27.4821 10.4866 28.0853C10.1847 28.3949 9.82624 28.6354 9.43328 28.7921C9.04032 28.9487 8.62126 29.0181 8.20202 28.996C7.78141 29.0175 7.36106 28.9479 6.96664 28.7913C6.57222 28.6348 6.212 28.3945 5.90795 28.0853C5.62856 27.7944 5.40829 27.4459 5.26074 27.0611C5.11318 26.6764 5.04149 26.2637 5.05006 25.8484Z" fill="white"/>
</svg>
