<svg width="975" height="252" viewBox="0 0 975 170" fill="none" xmlns="http://www.w3.org/2000/svg">
<path d="M831.928 199.271V135.627H883.015V199.271C883.015 206.272 888.762 212 895.787 212H934.101C941.126 212 946.873 206.272 946.873 199.271V110.169H968.585C974.46 110.169 977.27 102.913 972.799 99.0946L866.029 3.24587C861.175 -1.08196 853.768 -1.08196 848.915 3.24587L742.144 99.0946C737.801 102.913 740.483 110.169 746.358 110.169H768.07V199.271C768.07 206.272 773.817 212 780.842 212H819.157C826.181 212 831.928 206.272 831.928 199.271Z" fill="white" fill-opacity="0.08"/>
<path d="M21.0112 201.306L57.5533 163.777C72.9411 175.563 91.8449 181.833 111.226 181.58C128.487 181.375 145.3 176.056 159.538 166.297C173.776 156.537 184.8 142.774 191.217 126.749C197.633 110.724 199.154 93.1557 195.585 76.2664C192.017 59.3771 183.521 43.9252 171.171 31.8646C158.821 19.804 143.172 11.6764 126.203 8.50966C109.234 5.34291 91.7068 7.27921 75.8382 14.0737C59.9695 20.8682 46.472 32.2157 37.0525 46.6812C27.633 61.1468 22.7146 78.0807 22.9192 95.3416C23.1249 114.724 29.8414 133.473 41.9892 148.577L5.33676 185.999C4.3263 187.025 3.52901 188.241 2.99093 189.577C2.45285 190.913 2.18462 192.342 2.20169 193.783C2.21876 195.223 2.5208 196.645 3.0904 197.968C3.65999 199.291 4.48589 200.488 5.52039 201.49C6.54664 202.5 7.76281 203.297 9.09875 203.836C10.4347 204.374 11.8639 204.642 13.3041 204.625C14.7442 204.608 16.1667 204.306 17.4895 203.736C18.8123 203.166 20.0092 202.341 21.0112 201.306ZM109.416 28.8527C122.361 28.6992 135.062 32.3881 145.911 39.4527C156.76 46.5173 165.271 56.6404 170.367 68.5419C175.463 80.4434 176.915 93.5887 174.54 106.316C172.165 119.042 166.069 130.779 157.024 140.042C147.978 149.304 136.389 155.676 123.722 158.352C111.055 161.028 97.8792 159.888 85.8602 155.076C73.8413 150.264 63.5193 141.995 56.1995 131.317C48.8796 120.638 44.8908 108.029 44.7373 95.0829C44.5316 77.7234 51.2303 60.9931 63.3598 48.5725C75.4894 36.1519 92.0562 29.0585 109.416 28.8527Z" fill="white" fill-opacity="0.08"/>
</svg>
