<svg width="37" height="37" viewBox="0 0 37 37" fill="none" xmlns="http://www.w3.org/2000/svg">
<path d="M18.5 0C8.28337 0 0 8.28337 0 18.5C0 28.7166 8.28337 37 18.5 37C28.7166 37 37 28.7166 37 18.5C37 8.28337 28.7166 0 18.5 0ZM27.0701 13.3824L18.2086 26.9268C18.2063 26.9291 18.2017 26.9314 18.2017 26.9337C18.1554 27.0031 18.13 27.0817 18.0722 27.1464C17.9913 27.2343 17.8872 27.2806 17.7947 27.3476C17.7716 27.3638 17.7484 27.3823 17.723 27.3985C17.5796 27.4887 17.4316 27.5488 17.2698 27.5881C17.2166 27.602 17.168 27.6159 17.1125 27.6251C16.9837 27.6428 16.8532 27.6444 16.724 27.6297C16.6328 27.624 16.5422 27.6101 16.4534 27.5881C16.3619 27.5605 16.2729 27.5249 16.1875 27.4818C16.1135 27.4471 16.0349 27.4378 15.9655 27.3939C15.9146 27.3615 15.8869 27.3106 15.8429 27.2713C15.8244 27.2551 15.8013 27.2505 15.7828 27.2343L10.6236 22.4636C10.3178 22.17 10.1394 21.7681 10.1268 21.3443C10.1141 20.9205 10.2682 20.5087 10.5559 20.1974C10.8437 19.886 11.2421 19.6999 11.6655 19.6792C12.089 19.6584 12.5037 19.8046 12.8205 20.0864L16.5552 23.5413L24.3599 11.6111C24.5948 11.2517 24.9628 11.0003 25.3831 10.9123C25.8033 10.8242 26.2413 10.9067 26.6007 11.1416C26.9601 11.3765 27.2115 11.7446 27.2995 12.1648C27.3875 12.585 27.305 13.023 27.0701 13.3824Z" fill="#176CFF"/>
</svg>
