<svg width="36" height="36" viewBox="0 0 36 36" fill="none" xmlns="http://www.w3.org/2000/svg">
<path d="M3.7731 35.0629L10.3334 28.3254C13.096 30.4413 16.4897 31.567 19.9692 31.5214C23.068 31.4847 26.0864 30.5299 28.6425 28.7777C31.1987 27.0256 33.1779 24.5548 34.3298 21.6778C35.4817 18.8008 35.7546 15.6469 35.1141 12.6148C34.4735 9.58268 32.9482 6.80863 30.731 4.64341C28.5138 2.4782 25.7044 1.01907 22.658 0.450554C19.6115 -0.117966 16.4649 0.229653 13.6161 1.44945C10.7672 2.66925 8.34403 4.70645 6.65296 7.30342C4.9619 9.90039 4.0789 12.9405 4.11564 16.0393C4.15256 19.5189 5.35836 22.885 7.53923 25.5966L0.959095 32.3148C0.777687 32.4991 0.634551 32.7174 0.537954 32.9572C0.441352 33.1971 0.393197 33.4537 0.396262 33.7122C0.399326 33.9708 0.45355 34.2261 0.55581 34.4636C0.658066 34.7011 0.806337 34.916 0.992061 35.0959C1.1763 35.2773 1.39464 35.4204 1.63448 35.517C1.87431 35.6136 2.13091 35.6618 2.38945 35.6587C2.64799 35.6556 2.90337 35.6014 3.14085 35.4992C3.37833 35.3969 3.59321 35.2486 3.7731 35.0629ZM19.6442 4.1027C21.9683 4.07515 24.2484 4.73739 26.1961 6.00569C28.1438 7.27399 29.6717 9.09137 30.5866 11.228C31.5014 13.3647 31.7622 15.7246 31.3358 18.0095C30.9094 20.2943 29.815 22.4014 28.1911 24.0642C26.5672 25.7271 24.4867 26.8711 22.2126 27.3515C19.9385 27.8319 17.573 27.6272 15.4153 26.7633C13.2576 25.8994 11.4045 24.415 10.0904 22.4979C8.77626 20.5807 8.06015 18.317 8.0326 15.9929C7.99566 12.8764 9.19826 9.87279 11.3759 7.64295C13.5535 5.41311 16.5277 4.13964 19.6442 4.1027Z" fill="white"/>
</svg>
