<svg width="19" height="21" viewBox="0 0 19 21" fill="none" xmlns="http://www.w3.org/2000/svg">
<path d="M8.51207 0.589263C8.18409 0.96251 8 1.46741 8 1.9937C8 2.51999 8.18409 3.02489 8.51207 3.39814L14.7459 10.5498L8.51207 17.6019C8.18409 17.9751 8 18.48 8 19.0063C8 19.5326 8.18409 20.0375 8.51207 20.4107C8.67578 20.5975 8.87054 20.7457 9.08513 20.8468C9.29972 20.9479 9.52989 21 9.76236 21C9.99482 21 10.225 20.9479 10.4396 20.8468C10.6542 20.7457 10.8489 20.5975 11.0126 20.4107L18.4791 11.9642C18.6442 11.779 18.7752 11.5587 18.8646 11.3159C18.954 11.0732 19 10.8128 19 10.5498C19 10.2868 18.954 10.0264 18.8646 9.78369C18.7752 9.54093 18.6442 9.3206 18.4791 9.13541L11.0126 0.589263C10.8489 0.402546 10.6542 0.254345 10.4396 0.153209C10.225 0.0520721 9.99482 -2.98023e-07 9.76236 -2.98023e-07C9.52989 -2.98023e-07 9.29972 0.0520721 9.08513 0.153209C8.87054 0.254345 8.67578 0.402546 8.51207 0.589263Z" fill="#0063D4"/>
<path d="M0.512074 0.589263C0.184094 0.96251 0 1.46741 0 1.9937C0 2.51999 0.184094 3.02489 0.512074 3.39814L6.74587 10.5498L0.512074 17.6019C0.184094 17.9751 0 18.48 0 19.0063C0 19.5326 0.184094 20.0375 0.512074 20.4107C0.675778 20.5975 0.870542 20.7457 1.08513 20.8468C1.29972 20.9479 1.52989 21 1.76236 21C1.99482 21 2.22499 20.9479 2.43958 20.8468C2.65417 20.7457 2.84893 20.5975 3.01264 20.4107L10.4791 11.9642C10.6442 11.779 10.7752 11.5587 10.8646 11.3159C10.954 11.0732 11 10.8128 11 10.5498C11 10.2868 10.954 10.0264 10.8646 9.78369C10.7752 9.54093 10.6442 9.3206 10.4791 9.13541L3.01264 0.589263C2.84893 0.402546 2.65417 0.254345 2.43958 0.153209C2.22499 0.0520721 1.99482 -2.98023e-07 1.76236 -2.98023e-07C1.52989 -2.98023e-07 1.29972 0.0520721 1.08513 0.153209C0.870542 0.254345 0.675778 0.402546 0.512074 0.589263Z" fill="#0063D4"/>
</svg>
