<svg width="19" height="21" viewBox="0 0 19 21" fill="none" xmlns="http://www.w3.org/2000/svg">
<path d="M10.4879 20.4107C10.8159 20.0375 11 19.5326 11 19.0063C11 18.48 10.8159 17.9751 10.4879 17.6019L4.25413 10.4502L10.4879 3.39813C10.8159 3.02489 11 2.51998 11 1.9937C11 1.46741 10.8159 0.962508 10.4879 0.589262C10.3242 0.402545 10.1295 0.254343 9.91487 0.153206C9.70028 0.0520697 9.47011 0 9.23764 0C9.00518 0 8.77501 0.0520697 8.56042 0.153206C8.34583 0.254343 8.15107 0.402545 7.98736 0.589262L0.520889 9.0358C0.355837 9.22099 0.224832 9.44132 0.13543 9.68408C0.0460286 9.92683 1.19209e-07 10.1872 1.19209e-07 10.4502C1.19209e-07 10.7132 0.0460286 10.9736 0.13543 11.2163C0.224832 11.4591 0.355837 11.6794 0.520889 11.8646L7.98736 20.4107C8.15107 20.5975 8.34583 20.7457 8.56042 20.8468C8.77501 20.9479 9.00518 21 9.23764 21C9.47011 21 9.70028 20.9479 9.91487 20.8468C10.1295 20.7457 10.3242 20.5975 10.4879 20.4107Z" fill="#0063D4"/>
<path d="M18.4879 20.4107C18.8159 20.0375 19 19.5326 19 19.0063C19 18.48 18.8159 17.9751 18.4879 17.6019L12.2541 10.4502L18.4879 3.39813C18.8159 3.02489 19 2.51998 19 1.9937C19 1.46741 18.8159 0.962508 18.4879 0.589262C18.3242 0.402545 18.1295 0.254343 17.9149 0.153206C17.7003 0.0520697 17.4701 0 17.2376 0C17.0052 0 16.775 0.0520697 16.5604 0.153206C16.3458 0.254343 16.1511 0.402545 15.9874 0.589262L8.52089 9.0358C8.35584 9.22099 8.22483 9.44132 8.13543 9.68408C8.04603 9.92683 8 10.1872 8 10.4502C8 10.7132 8.04603 10.9736 8.13543 11.2163C8.22483 11.4591 8.35584 11.6794 8.52089 11.8646L15.9874 20.4107C16.1511 20.5975 16.3458 20.7457 16.5604 20.8468C16.775 20.9479 17.0052 21 17.2376 21C17.4701 21 17.7003 20.9479 17.9149 20.8468C18.1295 20.7457 18.3242 20.5975 18.4879 20.4107Z" fill="#0063D4"/>
</svg>
