<svg width="18" height="31" viewBox="0 0 18 31" fill="none" xmlns="http://www.w3.org/2000/svg">
<path d="M17.1621 30.1301C17.6988 29.5792 18 28.8338 18 28.0569C18 27.28 17.6988 26.5347 17.1621 25.9837L6.9613 15.4265L17.1621 5.01629C17.6988 4.46531 18 3.71998 18 2.94308C18 2.16618 17.6988 1.42085 17.1621 0.869863C16.8942 0.594233 16.5755 0.375459 16.2243 0.226162C15.8732 0.0768649 15.4965 2.98534e-08 15.1161 3.43896e-08C14.7357 3.89259e-08 14.3591 0.0768649 14.008 0.226162C13.6568 0.375459 13.3381 0.594233 13.0702 0.869863L0.852364 13.3386C0.582277 13.6119 0.367907 13.9372 0.221613 14.2955C0.0753195 14.6539 1.7933e-07 15.0383 1.83959e-07 15.4265C1.88588e-07 15.8147 0.0753195 16.1991 0.221613 16.5574C0.367907 16.9158 0.582278 17.241 0.852364 17.5144L13.0702 30.1301C13.3381 30.4058 13.6568 30.6245 14.008 30.7738C14.3591 30.9231 14.7357 31 15.1161 31C15.4965 31 15.8732 30.9231 16.2243 30.7738C16.5755 30.6245 16.8942 30.4058 17.1621 30.1301Z" fill="#176CFF"/>
</svg>
