<svg width="17" height="18" viewBox="0 0 17 18" fill="none" xmlns="http://www.w3.org/2000/svg">
<path d="M16.7067 3.44356L13.1718 0.263896C12.9854 0.0958818 12.7328 0.00101981 12.469 8.17456e-06C12.2052 -0.00100346 11.9517 0.0919174 11.7638 0.258496L3.09594 7.93811C2.96083 8.05847 2.86621 8.2107 2.82295 8.37731L1.79897 12.3706L0 14.4H2.82795L3.96993 13.384L7.55786 12.6388C7.73786 12.601 7.90286 12.5191 8.03485 12.403L16.7017 4.72155C16.7958 4.63818 16.8705 4.53887 16.9217 4.42936C16.9729 4.31985 16.9995 4.2023 17 4.08349C17.0005 3.96468 16.9748 3.84697 16.9244 3.73713C16.8741 3.6273 16.8001 3.52752 16.7067 3.44356ZM7.33787 10.4932L5.21691 8.5852L12.4598 2.16738L14.5797 4.07535L7.33787 10.4932ZM0 16.2H15.9997V18H0V16.2Z" fill="#6B6B6B"/>
</svg>
